<svg width="546" height="546" viewBox="0 0 546 546" fill="none" xmlns="http://www.w3.org/2000/svg">
<path d="M203.238 220.702C246.577 220.702 281.711 185.569 281.711 142.229C281.711 98.8899 246.577 63.7563 203.238 63.7563C159.898 63.7563 124.765 98.8899 124.765 142.229C124.765 185.569 159.898 220.702 203.238 220.702Z" stroke="#3A89BD" stroke-width="34.005" stroke-linecap="round" stroke-linejoin="round"/>
<path d="M360.187 482.268H46.2944V447.391C46.2944 405.767 62.8298 365.847 92.2629 336.414C121.696 306.981 161.616 290.445 203.241 290.445C244.865 290.445 284.785 306.981 314.218 336.414C343.651 365.847 360.187 405.767 360.187 447.391V482.268Z" stroke="#3A89BD" stroke-width="34.005" stroke-linecap="round" stroke-linejoin="round"/>
<path d="M342.764 63.7563C363.577 63.7563 383.537 72.024 398.253 86.7406C412.97 101.457 421.237 121.417 421.237 142.229C421.237 163.042 412.97 183.002 398.253 197.718C383.537 212.435 363.577 220.702 342.764 220.702" stroke="#3A89BD" stroke-width="34.005" stroke-linecap="round" stroke-linejoin="round"/>
<path d="M398.559 297.087C428.269 308.389 453.846 328.445 471.907 354.602C489.968 380.759 499.66 411.784 499.703 443.57V482.283H447.387" stroke="#3A89BD" stroke-width="34.005" stroke-linecap="round" stroke-linejoin="round"/>
</svg>
