<svg width="535" height="535" viewBox="0 0 535 535" fill="none" xmlns="http://www.w3.org/2000/svg">
<g clip-path="url(#clip0_14_83)">
<path d="M428 214C428 157.244 405.454 102.812 365.321 62.6792C325.188 22.5464 270.756 0 214 0C157.244 0 102.812 22.5464 62.6792 62.6792C22.5464 102.812 0 157.244 0 214C0 347.563 148.168 486.663 197.923 529.623C202.561 533.101 208.203 534.979 214 534.973M428 535V454.75M347.75 535C340.655 535 333.851 532.182 328.835 527.165C323.818 522.149 321 515.345 321 508.25V401.25C320.999 396.847 322.085 392.512 324.162 388.63C326.239 384.747 329.241 381.438 332.904 378.994L413.154 325.494C417.55 322.561 422.716 320.996 428 320.996C433.284 320.996 438.45 322.561 442.846 325.494L523.096 378.994C526.759 381.438 529.761 384.747 531.838 388.63C533.915 392.512 535.001 396.847 535 401.25V508.25C535 515.345 532.182 522.149 527.165 527.165C522.149 532.182 515.345 535 508.25 535H347.75ZM294.25 214C294.25 258.321 258.321 294.25 214 294.25C169.679 294.25 133.75 258.321 133.75 214C133.75 169.679 169.679 133.75 214 133.75C258.321 133.75 294.25 169.679 294.25 214Z" stroke="#3A89BD" stroke-width="40.125" stroke-linecap="round" stroke-linejoin="round"/>
</g>
<defs>
<clipPath id="clip0_14_83">
<rect width="535" height="535" fill="white"/>
</clipPath>
</defs>
</svg>
