<?xml version="1.0" encoding="utf-8"?>
<!-- Generator: Adobe Illustrator 25.0.1, SVG Export Plug-In . SVG Version: 6.00 Build 0)  -->
<svg version="1.1" id="Layer_1" xmlns="http://www.w3.org/2000/svg" xmlns:xlink="http://www.w3.org/1999/xlink" x="0px" y="0px"
	 viewBox="0 0 393.2 76.9" style="enable-background:new 0 0 393.2 76.9;" xml:space="preserve">
<style type="text/css">
	.st0{fill:#06064F;}
	.st1{fill:#45C2F0;}
</style>
<g>
	<g>
		<path class="st0" d="M7.8,68.6V17.2h10.8l0.9,6.8h0.3c1-1.6,2.2-3,3.6-4.1c1.4-1.2,3-2.1,4.9-2.7c1.9-0.7,4-1,6.3-1
			c3.9,0,7.4,1,10.4,2.9c3,1.9,5.3,4.5,7,7.8c1.7,3.3,2.5,7.1,2.5,11.4c0,4.3-0.8,8.1-2.5,11.4c-1.7,3.3-4,5.9-7,7.8
			c-3,1.9-6.5,2.9-10.6,2.9c-3.1,0-5.8-0.6-8.1-1.7c-2.4-1.1-4.2-2.6-5.7-4.3v14.1H7.8z M30.9,50c2.1,0,4-0.5,5.6-1.5
			c1.6-1,2.9-2.4,3.7-4.1c0.9-1.7,1.3-3.7,1.3-6c0-2.3-0.4-4.3-1.3-6c-0.9-1.7-2.1-3.1-3.7-4.1c-1.6-1-3.5-1.5-5.6-1.5
			c-2.1,0-4,0.5-5.6,1.5c-1.6,1-2.9,2.4-3.8,4.1c-0.9,1.7-1.4,3.7-1.4,6c0,2.2,0.5,4.2,1.4,6c0.9,1.8,2.2,3.1,3.8,4.1
			C26.9,49.5,28.8,50,30.9,50z"/>
		<path class="st0" d="M71.8,60.5c-3.4,0-6.2-0.6-8.4-1.7c-2.2-1.1-3.8-2.7-4.9-4.6c-1-1.9-1.5-4-1.5-6.3c0-2.6,0.6-4.8,1.9-6.8
			c1.3-2,3.3-3.5,6-4.6c2.7-1.1,6.2-1.7,10.5-1.7h10.4c0-1.9-0.3-3.5-0.8-4.7c-0.5-1.2-1.3-2.1-2.4-2.7c-1.1-0.6-2.6-0.9-4.4-0.9
			c-2,0-3.7,0.4-5.2,1.3c-1.4,0.9-2.3,2.2-2.7,4H58.1c0.3-3.1,1.3-5.8,3.1-8.1c1.8-2.3,4.1-4.1,7-5.4c2.9-1.3,6.3-2,10.1-2
			c4.1,0,7.6,0.7,10.7,2c3,1.3,5.4,3.2,7.1,5.8c1.7,2.6,2.5,5.7,2.5,9.5v26H88l-1.4-6.4h-0.3c-0.8,1.2-1.7,2.3-2.7,3.2
			c-1,0.9-2.1,1.7-3.4,2.3c-1.2,0.6-2.5,1.1-3.9,1.4C74.9,60.3,73.4,60.5,71.8,60.5z M76,50.8c1.4,0,2.6-0.2,3.6-0.7
			c1-0.5,1.9-1.1,2.7-1.8c0.7-0.8,1.3-1.7,1.8-2.7c0.5-1,0.8-2.1,1-3.3h-8.3c-1.5,0-2.7,0.2-3.6,0.6s-1.6,0.9-2.1,1.5
			c-0.5,0.7-0.7,1.4-0.7,2.3c0,0.9,0.2,1.7,0.7,2.3c0.5,0.6,1.1,1.1,2,1.4C74,50.6,75,50.8,76,50.8z"/>
		<path class="st0" d="M124.5,60.5c-4.5,0-8.4-1-11.8-2.9c-3.4-1.9-6-4.5-7.9-7.8c-1.9-3.3-2.8-7.1-2.8-11.4c0-4.3,0.9-8.1,2.9-11.4
			c1.9-3.3,4.5-5.9,7.9-7.8c3.4-1.9,7.3-2.9,11.8-2.9c5.6,0,10.3,1.5,14.1,4.4c3.8,2.9,6.3,7,7.3,12.1h-13.6
			c-0.5-1.8-1.4-3.2-2.8-4.2c-1.4-1-3.1-1.5-5.1-1.5c-1.8,0-3.4,0.5-4.9,1.4c-1.4,0.9-2.5,2.2-3.3,3.9c-0.8,1.7-1.2,3.7-1.2,6
			c0,1.7,0.2,3.2,0.7,4.6c0.5,1.4,1.1,2.6,2,3.6c0.9,1,1.8,1.8,3,2.3c1.1,0.5,2.4,0.8,3.7,0.8c1.4,0,2.6-0.2,3.6-0.6
			c1-0.4,2-1.1,2.7-1.9c0.8-0.9,1.3-1.9,1.6-3.1H146c-1,5.1-3.5,9.1-7.3,12C134.8,59,130.1,60.5,124.5,60.5z"/>
		<path class="st0" d="M150.4,59.4V17.2h12.8v42.2H150.4z"/>
		<path class="st0" d="M203.1,27.7V17.2h-15.6V8.9h-11.8l-1,8.3h-7.1v10.5h7.1v16.1c0,3.9,0.7,7,2,9.3c1.3,2.3,3.2,3.9,5.5,4.9
			c2.4,1,5.1,1.5,8.2,1.5h7.8V48.7h-5.7c-1.8,0-3.1-0.4-3.9-1.1c-0.8-0.7-1.2-1.9-1.2-3.7V27.7H203.1z"/>
		<path class="st0" d="M219.6,60.5c-3.5,0-6.5-0.8-9-2.3c-2.5-1.5-4.3-3.8-5.6-6.7c-1.3-3-1.9-6.6-1.9-10.8V17.2h12.8v22.2
			c0,3.3,0.6,5.8,1.9,7.6c1.3,1.8,3.4,2.7,6.3,2.7c1.8,0,3.4-0.4,4.8-1.3c1.4-0.9,2.5-2.1,3.3-3.7c0.8-1.6,1.2-3.5,1.2-5.7V17.2
			h12.8v42.2h-10.9l-1-6.8H234c-1.3,2.4-3.1,4.4-5.5,5.7C226.1,59.8,223.2,60.5,219.6,60.5z"/>
		<path class="st0" d="M284.1,8.9v13.3c-1.4-1.8-3.3-3.2-5.7-4.3c-2.4-1.1-5.1-1.7-8.1-1.7c-4,0-7.5,0.9-10.5,2.8
			c-3,1.9-5.4,4.5-7.1,7.8c-1.7,3.3-2.6,7.1-2.6,11.5c0,4.3,0.9,8.1,2.6,11.4c1.7,3.4,4.1,6,7.1,7.9c3,1.9,6.5,2.9,10.4,2.9
			c2.4,0,4.5-0.3,6.3-1c1.8-0.7,3.4-1.6,4.8-2.7c1.4-1.2,2.6-2.5,3.6-4.1h0.3l0.9,6.8h10.9V8.9H284.1z M283.1,44.2
			c-0.9,1.7-2.1,3.1-3.7,4.1c-1.6,1-3.5,1.5-5.6,1.5c-2.1,0-4-0.5-5.6-1.5c-1.6-1-2.9-2.4-3.8-4.1c-0.9-1.7-1.3-3.7-1.3-6
			c0-2.2,0.4-4.2,1.3-5.9c0.9-1.7,2.1-3.1,3.8-4.1c1.6-1,3.5-1.5,5.5-1.5c2.2,0,4,0.5,5.7,1.5c1.6,1,2.9,2.4,3.7,4.1
			c0.9,1.7,1.3,3.7,1.3,6C284.5,40.5,284,42.5,283.1,44.2z"/>
		<path class="st0" d="M323.7,60.5c-4.4,0-8.3-0.9-11.7-2.7c-3.4-1.8-6-4.4-7.9-7.6c-1.9-3.3-2.9-7-2.9-11.3c0-4.4,0.9-8.3,2.8-11.7
			c1.9-3.4,4.5-6.1,7.9-8c3.4-2,7.3-2.9,11.8-2.9c4.2,0,7.9,0.9,11.2,2.7c3.3,1.8,5.8,4.3,7.7,7.5c1.9,3.2,2.8,6.8,2.8,11
			c0,0.6,0,1.2,0,1.9c0,0.7-0.1,1.4-0.2,2.2l-31.4,0.2v-7.5l18.7-0.2c-0.2-2.3-1.1-4.1-2.7-5.5c-1.6-1.4-3.6-2.1-6-2.1
			c-1.9,0-3.6,0.4-5.1,1.2c-1.5,0.8-2.7,2.1-3.6,3.7c-0.9,1.7-1.3,3.8-1.3,6.4v2.5c0,1.9,0.4,3.6,1.2,5.2c0.8,1.5,1.9,2.7,3.4,3.5
			c1.5,0.8,3.2,1.2,5.1,1.2c1.9,0,3.4-0.4,4.7-1.2c1.2-0.8,2.2-1.8,2.9-3.1h13.1c-0.9,2.7-2.2,5.2-4.2,7.4c-1.9,2.2-4.3,4-7.1,5.3
			C330.2,59.8,327.1,60.5,323.7,60.5z"/>
	</g>
	<path class="st1" d="M357.6,9l-9,9l7.1,7.1c7.6,7.6,7.6,19.9,0,27.5l-7.1,7.1l9,9L372.3,54c15.3-15.3,15.2-15.2-1.7-32.1L357.6,9z"
		/>
</g>
</svg>
