<svg width="2002" height="580" viewBox="0 0 2002 580" fill="none" xmlns="http://www.w3.org/2000/svg">
<path d="M236.89 212.842C233.584 204.332 228.674 196.537 222.427 189.881C215.695 182.86 207.57 177.324 198.572 173.629C188.362 169.433 177.405 167.353 166.367 167.516H11.7544C8.96475 167.505 6.24602 168.394 4.00147 170.051C2.753 171.005 1.75934 172.253 1.10909 173.684C0.45884 175.114 0.172116 176.683 0.274065 178.251V188.241L164.578 187.942C172.804 187.74 180.981 189.264 188.582 192.415C194.921 195.124 200.651 199.079 205.431 204.045C209.761 208.752 213.106 214.278 215.271 220.296C219.642 232.439 219.642 245.726 215.271 257.869C213.162 263.88 209.866 269.407 205.58 274.12C200.999 279.078 195.405 282.993 189.179 285.6C181.694 288.6 173.684 290.07 165.622 289.924L8.027 289.328C5.97077 289.328 3.9987 290.145 2.54473 291.599C1.09076 293.053 0.274065 295.025 0.274065 297.081V423.067C0.162118 424.701 0.441844 426.338 1.09016 427.842C1.73848 429.347 2.73665 430.674 4.00147 431.715C6.05379 433.543 8.70764 434.552 11.4563 434.548C14.3954 434.615 17.2579 433.608 19.5073 431.715C20.7722 430.674 21.7703 429.347 22.4186 427.842C23.067 426.338 23.3467 424.701 23.2347 423.067V315.569C23.2347 314.185 23.7846 312.857 24.7632 311.879C25.7418 310.9 27.0691 310.35 28.4531 310.35H166.367C177.405 310.513 188.362 308.434 198.572 304.237C207.495 300.539 215.601 295.118 222.427 288.284C231.792 278.404 238.13 266.048 240.693 252.678C243.256 239.309 241.936 225.485 236.89 212.842Z" fill="white"/>
<path d="M405.815 234.761C404.077 233.134 401.785 232.228 399.404 232.227C374.953 232.525 354.526 237.743 338.871 247.583C326.021 255.515 314.953 266.024 306.368 278.446V243.111C306.474 241.557 306.204 240 305.581 238.573C304.959 237.145 304.001 235.889 302.79 234.91C300.686 233.254 298.087 232.353 295.41 232.353C292.732 232.353 290.133 233.254 288.029 234.91C286.818 235.889 285.86 237.145 285.237 238.573C284.614 240 284.345 241.557 284.451 243.111V423.517C284.375 425.082 284.673 426.642 285.321 428.069C285.969 429.495 286.949 430.746 288.178 431.717C290.231 433.546 292.885 434.554 295.633 434.55C298.374 434.514 301.015 433.511 303.088 431.717C304.272 430.715 305.21 429.455 305.83 428.033C306.451 426.612 306.737 425.067 306.666 423.517V330.332C306.623 319.676 309.073 309.157 313.823 299.618C318.625 289.983 325.319 281.414 333.504 274.421C342.295 266.986 352.342 261.179 363.174 257.275C374.779 253.038 387.05 250.917 399.404 251.013C401.785 251.011 404.077 250.105 405.815 248.478C406.754 247.599 407.503 246.537 408.015 245.358C408.526 244.178 408.79 242.906 408.79 241.62C408.79 240.334 408.526 239.061 408.015 237.882C407.503 236.702 406.754 235.64 405.815 234.761Z" fill="white"/>
<path d="M607.841 262.044C596.854 252.645 584.284 245.274 570.716 240.276C541.196 229.543 508.84 229.543 479.32 240.276C465.752 245.274 453.182 252.645 442.195 262.044C431.738 270.901 423.213 281.812 417.147 294.1C411.063 306.382 407.897 319.904 407.897 333.61C407.897 347.317 411.063 360.839 417.147 373.121C423.213 385.409 431.738 396.32 442.195 405.177C453.152 414.581 465.733 421.908 479.32 426.796C508.908 437.136 541.128 437.136 570.716 426.796C584.303 421.908 596.884 414.581 607.841 405.177C618.298 396.282 626.865 385.382 633.038 373.121C639.212 360.865 642.429 347.333 642.429 333.61C642.429 319.887 639.212 306.355 633.038 294.1C626.865 281.838 618.298 270.939 607.841 262.044ZM525.093 415.912C512.424 415.967 499.85 413.745 487.968 409.351C476.892 405.379 466.634 399.417 457.701 391.758C449.276 384.435 442.385 375.517 437.424 365.517C432.711 355.541 430.267 344.644 430.267 333.61C430.267 322.577 432.711 311.68 437.424 301.704C442.381 291.659 449.271 282.691 457.701 275.314C466.62 267.563 476.877 261.5 487.968 257.422C511.929 248.88 538.107 248.88 562.068 257.422C573.159 261.5 583.416 267.563 592.335 275.314C600.768 282.724 607.702 291.682 612.761 301.704C617.664 311.625 620.215 322.543 620.215 333.61C620.215 344.677 617.664 355.596 612.761 365.517C607.698 375.493 600.764 384.402 592.335 391.758C583.402 399.417 573.144 405.379 562.068 409.351C550.238 413.746 537.712 415.969 525.093 415.912Z" fill="white"/>
<path d="M927.056 311.993C918.861 302.92 908.264 296.355 896.492 293.057C907.674 289.032 916.172 282.472 921.689 273.377C927.205 264.282 931.678 248.925 931.678 232.972C931.884 223.86 930.314 214.795 927.056 206.283C924.145 199.316 919.831 193.023 914.383 187.795C908.92 182.831 902.607 178.891 895.746 176.166C888.587 173.513 881.2 171.517 873.679 170.202C865.839 168.884 857.919 168.087 849.973 167.817L826.416 167.518H721.601C718.898 167.518 716.305 168.581 714.379 170.479C712.454 172.376 711.353 174.954 711.314 177.657C711.314 180.385 712.398 183.002 714.327 184.931C716.256 186.861 718.873 187.945 721.601 187.945H829.995C839.238 187.945 848.631 188.392 858.024 188.988C866.728 189.568 875.284 191.531 883.371 194.803C890.544 197.682 896.858 202.354 901.71 208.371C906.332 214.335 908.717 222.684 908.717 232.972C908.805 240.139 907.799 247.279 905.735 254.143C903.703 260.305 899.858 265.71 894.702 269.649C889.186 273.973 880.985 277.253 870.251 279.639C859.516 282.024 845.202 283.068 827.46 283.068H721.601C718.873 283.068 716.256 284.152 714.327 286.081C712.398 288.01 711.314 290.627 711.314 293.356C711.314 296.084 712.398 298.701 714.327 300.63C716.256 302.559 718.873 303.643 721.601 303.643H826.416C837.151 303.643 848.334 303.941 859.367 304.538C869.487 304.85 879.476 306.918 888.888 310.651C897.387 313.871 904.786 319.459 910.208 326.753C915.575 333.91 918.408 344.346 918.408 357.616C918.408 370.886 916.023 378.639 911.401 385.348C906.92 392.071 900.68 397.434 893.36 400.854C885.388 404.546 876.886 406.961 868.163 408.011C859.066 409.19 849.903 409.788 840.73 409.8H721.601C718.873 409.8 716.256 410.884 714.327 412.813C712.398 414.742 711.314 417.359 711.314 420.087C711.314 421.431 711.581 422.762 712.1 424.002C712.619 425.242 713.378 426.366 714.336 427.31C715.293 428.253 716.429 428.997 717.676 429.497C718.923 429.998 720.257 430.246 721.601 430.226H836.853C848.777 430.246 860.686 429.399 872.487 427.691C884.254 426.218 895.693 422.791 906.332 417.553C916.409 412.435 925.064 404.906 931.529 395.636C937.94 386.243 941.37 373.718 941.37 358.362C941.37 338.234 936.449 322.728 927.056 311.993Z" fill="white"/>
<path d="M1180.97 262.046C1169.9 252.675 1157.29 245.308 1143.69 240.278C1114.22 229.543 1081.92 229.543 1052.45 240.278C1038.85 245.308 1026.24 252.675 1015.17 262.046C1004.8 270.985 996.29 281.877 990.124 294.101C984.138 306.412 981.028 319.923 981.028 333.612C981.028 347.301 984.138 360.812 990.124 373.122C996.239 385.379 1004.76 396.281 1015.17 405.178C1026.2 414.555 1038.83 421.878 1052.45 426.797C1081.98 437.139 1114.16 437.139 1143.69 426.797C1157.31 421.878 1169.94 414.555 1180.97 405.178C1191.38 396.245 1199.94 385.354 1206.16 373.122C1212.34 360.867 1215.55 347.335 1215.55 333.612C1215.55 319.889 1212.34 306.357 1206.16 294.101C1199.94 281.87 1191.38 270.979 1180.97 262.046ZM1098.07 415.913C1085.45 415.97 1072.92 413.748 1061.09 409.353C1050 405.415 1039.74 399.449 1030.83 391.76C1022.36 384.479 1015.46 375.551 1010.55 365.519C1005.74 355.569 1003.25 344.662 1003.25 333.612C1003.25 322.562 1005.74 311.655 1010.55 301.705C1015.46 291.628 1022.35 282.651 1030.83 275.315C1039.73 267.534 1049.99 261.468 1061.09 257.424C1085 248.88 1111.14 248.88 1135.05 257.424C1146.15 261.468 1156.41 267.534 1165.31 275.315C1173.83 282.645 1180.78 291.622 1185.74 301.705C1190.64 311.627 1193.19 322.545 1193.19 333.612C1193.19 344.679 1190.64 355.597 1185.74 365.519C1180.78 375.558 1173.83 384.485 1165.31 391.76C1156.4 399.449 1146.14 405.415 1135.05 409.353C1123.22 413.761 1110.69 415.983 1098.07 415.913Z" fill="white"/>
<path d="M1442.04 235.057C1440.83 236.075 1439.88 237.359 1439.26 238.809C1438.64 240.258 1438.36 241.832 1438.46 243.406V336.442C1438.48 347.209 1435.98 357.832 1431.15 367.454C1426.28 377.087 1419.54 385.653 1411.32 392.652C1392.77 407.913 1369.44 416.148 1345.42 415.911C1329.62 415.911 1316.94 412.929 1307.7 407.263C1298.7 401.859 1291.37 394.066 1286.53 384.75C1281.4 374.68 1278.12 363.773 1276.84 352.545C1275.34 340.227 1274.59 327.829 1274.6 315.42V243.108C1274.62 241.573 1274.29 240.053 1273.65 238.66C1273 237.267 1272.06 236.036 1270.87 235.057C1268.87 233.245 1266.27 232.241 1263.57 232.241C1260.87 232.241 1258.26 233.245 1256.26 235.057C1255.09 236.064 1254.13 237.295 1253.44 238.677C1252.75 240.06 1252.34 241.566 1252.24 243.108V329.286C1252.29 341.611 1253.59 353.9 1256.11 365.964C1258.55 378.071 1263.36 389.575 1270.28 399.808C1277.58 410.414 1287.42 419.024 1298.9 424.857C1311.13 431.268 1326.93 434.548 1345.72 434.548C1356.83 434.653 1367.91 433.3 1378.67 430.522C1388.21 428.058 1397.38 424.348 1405.95 419.489C1413.71 414.879 1420.83 409.264 1427.13 402.79C1431.41 398.366 1435.3 393.576 1438.75 388.477V423.813C1438.66 425.365 1438.94 426.918 1439.56 428.343C1440.18 429.769 1441.13 431.026 1442.33 432.013C1444.37 433.635 1446.89 434.527 1449.49 434.548C1452.28 434.58 1455.01 433.689 1457.24 432.013C1458.39 430.99 1459.3 429.722 1459.89 428.302C1460.48 426.883 1460.75 425.349 1460.67 423.813V243.406C1460.75 241.82 1460.45 240.238 1459.8 238.788C1459.16 237.337 1458.18 236.06 1456.94 235.057C1454.88 233.253 1452.23 232.259 1449.49 232.259C1446.75 232.259 1444.1 233.253 1442.04 235.057Z" fill="white"/>
<path d="M1704.44 267.114C1697.08 256.503 1687.19 247.894 1675.67 242.066C1663.44 235.506 1647.79 232.226 1628.85 232.226C1617.69 232.113 1606.56 233.466 1595.75 236.251C1586.28 238.699 1577.19 242.463 1568.77 247.434C1560.93 251.994 1553.75 257.613 1547.45 264.132C1543.2 268.595 1539.32 273.381 1535.82 278.446V243.11C1535.92 241.571 1535.66 240.03 1535.06 238.607C1534.47 237.185 1533.55 235.919 1532.39 234.909C1530.26 233.241 1527.63 232.334 1524.93 232.334C1522.23 232.334 1519.6 233.241 1517.48 234.909C1516.27 235.888 1515.31 237.145 1514.68 238.572C1514.06 239.999 1513.79 241.556 1513.9 243.11V423.516C1513.86 425.076 1514.17 426.625 1514.82 428.046C1515.46 429.467 1516.42 430.722 1517.63 431.717C1519.69 433.52 1522.34 434.514 1525.08 434.514C1527.82 434.514 1530.47 433.52 1532.54 431.717C1533.74 430.722 1534.7 429.467 1535.34 428.046C1535.99 426.625 1536.3 425.076 1536.26 423.516V330.331C1536.17 319.556 1538.67 308.918 1543.57 299.319C1548.39 289.7 1555.14 281.174 1563.4 274.271C1572.17 266.917 1582.16 261.164 1592.92 257.274C1604.58 253.051 1616.9 250.931 1629.3 251.012C1644.95 251.012 1657.63 253.845 1666.87 259.51C1675.92 264.964 1683.3 272.804 1688.19 282.173C1693.2 292.278 1696.43 303.174 1697.73 314.378C1699.28 326.693 1700.08 339.091 1700.12 351.503V423.814C1700.06 425.319 1700.35 426.817 1700.98 428.188C1701.6 429.56 1702.53 430.768 1703.7 431.717C1705.77 433.51 1708.41 434.513 1711.15 434.549C1713.82 434.475 1716.38 433.532 1718.46 431.866C1719.69 430.917 1720.67 429.695 1721.35 428.298C1722.02 426.9 1722.36 425.365 1722.33 423.814V337.488C1722.26 325.22 1721.01 312.988 1718.61 300.959C1716.13 288.864 1711.32 277.368 1704.44 267.114Z" fill="white"/>
<path d="M1982.81 145.004C1980.05 144.934 1977.36 145.831 1975.2 147.538C1974.08 148.486 1973.19 149.677 1972.6 151.02C1972 152.363 1971.72 153.824 1971.77 155.291V278.445C1968.13 273.32 1964.09 268.484 1959.7 263.983C1953.13 257.548 1945.77 251.986 1937.78 247.433C1929.04 242.462 1919.66 238.7 1909.9 236.251C1898.98 233.493 1887.76 232.14 1876.5 232.225C1860.93 232.116 1845.47 234.845 1830.88 240.276C1817.31 245.274 1804.74 252.645 1793.75 262.044C1783.3 270.939 1774.73 281.839 1768.56 294.1C1762.38 306.356 1759.17 319.888 1759.17 333.611C1759.17 347.334 1762.38 360.866 1768.56 373.121C1774.73 385.383 1783.3 396.282 1793.75 405.177C1804.71 414.582 1817.29 421.908 1830.88 426.796C1845.51 432.057 1860.95 434.682 1876.5 434.549C1900.51 434.549 1921.08 429.629 1937.78 419.788C1951.24 412.186 1962.85 401.697 1971.77 389.074V424.112C1971.67 425.638 1971.91 427.168 1972.47 428.588C1973.04 430.008 1973.92 431.281 1975.05 432.312C1977.11 434.112 1979.78 435.07 1982.51 434.996C1985.24 434.909 1987.88 434.028 1990.11 432.461C1991.38 431.483 1992.4 430.213 1993.07 428.76C1993.75 427.307 1994.06 425.713 1993.99 424.112V155.291C1993.99 148.582 1990.11 145.004 1982.81 145.004ZM1876.2 251.011C1888.81 250.906 1901.34 253.078 1913.18 257.422C1924.29 261.466 1934.55 267.533 1943.45 275.314C1951.96 282.644 1958.91 291.62 1963.87 301.704C1968.78 311.625 1971.33 322.544 1971.33 333.611C1971.33 344.678 1968.78 355.596 1963.87 365.517C1958.91 375.556 1951.96 384.483 1943.45 391.758C1934.53 399.447 1924.27 405.413 1913.18 409.351C1889.3 418.097 1863.1 418.097 1839.23 409.351C1828.14 405.413 1817.87 399.447 1808.96 391.758C1800.49 384.478 1793.59 375.549 1788.68 365.517C1783.88 355.567 1781.38 344.66 1781.38 333.611C1781.38 322.561 1783.88 311.654 1788.68 301.704C1793.59 291.627 1800.49 282.65 1808.96 275.314C1817.86 267.533 1828.12 261.466 1839.23 257.422C1851.07 253.078 1863.59 250.906 1876.2 251.011Z" fill="white"/>
</svg>
