<?xml version="1.0" standalone="no"?>
<!DOCTYPE svg PUBLIC "-//W3C//DTD SVG 1.1//EN" "http://www.w3.org/Graphics/SVG/1.1/DTD/svg11.dtd" >
<svg xmlns="http://www.w3.org/2000/svg">
<metadata>
<json>
<![CDATA[
{
	"fontFamily": "poliocons",
	"majorVersion": 1,
	"minorVersion": 0,
	"version": "Version 1.0",
	"fontId": "poliocons",
	"psName": "poliocons",
	"subFamily": "Regular",
	"fullName": "poliocons",
	"description": "Font generated by IcoMoon."
}
]]>
</json>
</metadata>
<defs>
<font id="poliocons" horiz-adv-x="1024">
<font-face units-per-em="1024" ascent="960" descent="-64" />
<missing-glyph horiz-adv-x="1024" />
<glyph unicode="&#x20;" horiz-adv-x="512" d="" />
<glyph unicode="&#xe900;" glyph-name="st-medal" data-tags="st-medal" d="M624.977 904.214c-16.32 6.788-35.051-0.937-41.839-17.254l-44.373-106.667c-6.788-16.317 0.939-35.049 17.254-41.836 16.32-6.788 35.051 0.937 41.839 17.254l44.373 106.667c6.788 16.317-0.939 35.048-17.254 41.836zM780.915 903.943c-16.166 7.138-35.059-0.183-42.197-16.35l-147.179-333.383c-8.384 2.404-16.922 4.437-25.596 6.081l-160.232 328.41c-7.75 15.884-26.908 22.477-42.791 14.728s-22.477-26.908-14.728-42.791l144.39-295.945c-27.947-1.859-54.801-7.706-80.004-16.975l-170.631 341.263c-7.904 15.807-27.125 22.214-42.932 14.311s-22.214-27.125-14.311-42.932l170.651-341.301c-79.066-51.345-131.363-140.425-131.363-241.724 0-159.057 128.942-288 288-288s288 128.943 288 288c0 108.766-60.292 203.447-149.278 252.45l146.551 331.962c7.138 16.168-0.183 35.060-16.35 42.198zM540.582 499.529c110.212-14.042 195.409-108.169 195.409-222.195 0-123.708-100.288-224-224-224s-224 100.292-224 224c0 123.712 100.288 224 224 224 9.685 0 19.23-0.614 28.591-1.805zM547.644 412.621c-10.842 5.423-23.812 4.25-33.51-3.021l-85.333-64c-14.138-10.603-17.004-30.66-6.4-44.8 10.603-14.14 30.66-17.003 44.8-6.4l34.133 25.6v-149.333c0-17.673 14.327-32 32-32s32 14.327 32 32v213.333c0 12.122-6.848 23.202-17.69 28.621z" />
<glyph unicode="&#xe901;" glyph-name="x2-cell" data-tags="x2-cell" d="M480 864h390.4c31.812 0 57.6-25.789 57.6-57.6v-390.4h-448v448zM544 800v-320h320v320h-320zM480 32h390.4c31.812 0 57.6 25.788 57.6 57.6v390.4h-448v-448zM544 96v320h320v-320h-320zM160 800v-320h320v320h-320zM96 806.4c0 31.812 25.789 57.6 57.6 57.6h390.4v-448h-448v390.4zM160 96v320h320v-320h-320zM96 89.6c0-31.812 25.789-57.6 57.6-57.6h390.4v448h-448v-390.4z" />
<glyph unicode="&#xe902;" glyph-name="d-arc-center-pt" data-tags="d-arc-center-pt" d="M512.004 672c-19.392 0-38.443-1.396-57.054-4.090-17.493-2.531-33.722 9.597-36.253 27.087s9.595 33.722 27.088 36.253c21.636 3.131 43.75 4.749 66.219 4.749 20.275 0 40.26-1.318 59.866-3.875 17.527-2.286 29.879-18.346 27.593-35.87-2.283-17.525-18.342-29.878-35.87-27.592-16.87 2.2-34.086 3.337-51.588 3.337zM645.769 683.882c6.771 16.325 25.493 24.071 41.818 17.301 37.308-15.47 72.115-35.714 103.667-59.96 14.012-10.769 16.644-30.858 5.875-44.872s-30.861-16.644-44.873-5.875c-27.17 20.878-57.118 38.29-89.186 51.588-16.324 6.77-24.068 25.492-17.301 41.817zM361.267 677.897c7.454-16.024 0.507-35.057-15.517-42.511-34.823-16.199-66.905-37.339-95.339-62.53-13.228-11.719-33.453-10.496-45.172 2.733s-10.496 33.453 2.733 45.172c33.012 29.245 70.285 53.813 110.784 72.653 16.024 7.454 35.057 0.507 42.511-15.517zM831.023 562.455c14.016 10.769 34.103 8.138 44.873-5.875 24.247-31.554 44.489-66.361 59.959-103.665 6.771-16.329-0.977-35.051-17.301-41.818-16.324-6.771-35.046 0.977-41.818 17.301-13.295 32.068-30.707 62.016-51.588 89.182-10.769 14.016-8.137 34.105 5.875 44.874zM166.554 529.83c14.999-9.348 19.581-29.082 10.234-44.083-10.044-16.115-18.955-33.007-26.623-50.56-7.076-16.192-25.94-23.586-42.135-16.512-16.195 7.078-23.587 25.941-16.511 42.138 8.92 20.416 19.281 40.051 30.953 58.782 9.347 15 29.083 19.582 44.082 10.236zM930.927 364.791c17.523 2.287 33.583-10.069 35.87-27.593 2.56-19.605 3.874-39.59 3.874-59.866 0-17.673-14.327-32-32-32s-32 14.327-32 32c0 17.498-1.135 34.718-3.337 51.588-2.287 17.523 10.069 33.583 27.593 35.87zM85.333 234.667c23.564 0 42.667 19.102 42.667 42.667s-19.103 42.667-42.667 42.667c-23.564 0-42.667-19.102-42.667-42.667s19.103-42.667 42.667-42.667zM10.667 277.333c0-41.237 33.429-74.667 74.667-74.667s74.667 33.429 74.667 74.667c0 41.237-33.429 74.667-74.667 74.667s-74.667-33.429-74.667-74.667zM85.333 266.667c-5.891 0-10.667 4.774-10.667 10.667s4.776 10.667 10.667 10.667c5.891 0 10.667-4.774 10.667-10.667s-4.776-10.667-10.667-10.667zM53.333 277.333c0 17.673 14.327 32 32 32h426.667c17.673 0 32-14.327 32-32s-14.327-32-32-32h-426.667c-17.673 0-32 14.327-32 32zM512 234.667c23.565 0 42.667 19.102 42.667 42.667s-19.102 42.667-42.667 42.667c-23.565 0-42.667-19.102-42.667-42.667s19.102-42.667 42.667-42.667zM437.333 277.333c0-41.237 33.429-74.667 74.667-74.667s74.667 33.429 74.667 74.667c0 41.237-33.429 74.667-74.667 74.667s-74.667-33.429-74.667-74.667zM512 266.667c-5.892 0-10.667 4.774-10.667 10.667s4.774 10.667 10.667 10.667c5.892 0 10.667-4.774 10.667-10.667s-4.774-10.667-10.667-10.667z" />
<glyph unicode="&#xe903;" glyph-name="d-arc" data-tags="d-arc" d="M512 672c-217.968 0-394.667-176.7-394.667-394.667 0-17.673-14.327-32-32-32s-32 14.327-32 32c0 253.316 205.352 458.667 458.667 458.667 253.316 0 458.667-205.35 458.667-458.667 0-17.673-14.327-32-32-32s-32 14.327-32 32c0 217.967-176.7 394.667-394.667 394.667zM85.333 234.667c23.564 0 42.667 19.102 42.667 42.667s-19.103 42.667-42.667 42.667c-23.564 0-42.667-19.102-42.667-42.667s19.103-42.667 42.667-42.667zM10.667 277.333c0-41.237 33.429-74.667 74.667-74.667s74.667 33.429 74.667 74.667c0 41.237-33.429 74.667-74.667 74.667s-74.667-33.429-74.667-74.667zM85.333 266.667c-5.891 0-10.667 4.774-10.667 10.667s4.776 10.667 10.667 10.667c5.891 0 10.667-4.774 10.667-10.667s-4.776-10.667-10.667-10.667zM938.667 234.667c23.565 0 42.667 19.102 42.667 42.667s-19.102 42.667-42.667 42.667c-23.565 0-42.667-19.102-42.667-42.667s19.102-42.667 42.667-42.667zM864 277.333c0-41.237 33.429-74.667 74.667-74.667s74.667 33.429 74.667 74.667c0 41.237-33.429 74.667-74.667 74.667s-74.667-33.429-74.667-74.667zM938.667 266.667c-5.892 0-10.667 4.774-10.667 10.667s4.774 10.667 10.667 10.667c5.892 0 10.667-4.774 10.667-10.667s-4.774-10.667-10.667-10.667z" />
<glyph unicode="&#xe904;" glyph-name="d-bridge" data-tags="d-bridge" d="M736 789.333c0 17.673 14.327 32 32 32h128c17.673 0 32-14.327 32-32s-14.327-32-32-32h-128c-17.673 0-32 14.327-32 32zM426.667 64c23.565 0 42.667 19.102 42.667 42.667s-19.102 42.667-42.667 42.667c-23.564 0-42.667-19.102-42.667-42.667s19.103-42.667 42.667-42.667zM352 106.667c0-41.237 33.429-74.667 74.667-74.667s74.667 33.429 74.667 74.667c0 41.237-33.429 74.667-74.667 74.667s-74.667-33.429-74.667-74.667zM426.667 96c-5.891 0-10.667 4.774-10.667 10.667s4.776 10.667 10.667 10.667c5.892 0 10.667-4.774 10.667-10.667s-4.774-10.667-10.667-10.667zM597.333 746.667c23.565 0 42.667 19.103 42.667 42.667s-19.102 42.667-42.667 42.667c-23.565 0-42.667-19.103-42.667-42.667s19.102-42.667 42.667-42.667zM522.667 789.333c0-41.237 33.429-74.667 74.667-74.667s74.667 33.429 74.667 74.667c0 41.237-33.429 74.667-74.667 74.667s-74.667-33.429-74.667-74.667zM597.333 778.667c-5.892 0-10.667 4.776-10.667 10.667s4.774 10.667 10.667 10.667c5.892 0 10.667-4.776 10.667-10.667s-4.774-10.667-10.667-10.667zM415.141 136.521c-16.475-6.353-24.691-24.858-18.35-41.344 6.344-16.495 24.859-24.721 41.353-18.381l-11.486 29.871c11.486-29.871 11.503-29.862 11.52-29.858l0.038 0.017 0.094 0.034 0.265 0.107 0.828 0.329c0.678 0.273 1.613 0.657 2.778 1.148 2.33 0.986 5.589 2.411 9.587 4.284 7.987 3.738 19.021 9.306 31.569 16.764 24.828 14.75 56.951 37.7 82.859 69.709 26.18 32.337 46.673 74.842 45.453 127.211-1.212 52.126-23.829 109.444-74.889 171.853-44.941 54.925-59.657 98.941-60.442 132.813-0.785 33.63 12.058 61.795 31.211 85.455 19.426 23.995 44.638 42.377 65.809 54.958 10.449 6.209 19.584 10.81 26.014 13.821 3.209 1.502 5.722 2.598 7.36 3.291 0.819 0.346 1.421 0.591 1.779 0.735l0.32 0.129 0.030 0.011c0.009 0.003 0.017 0.007 0.026 0.010 16.461 6.364 24.661 24.856 18.325 41.333-6.345 16.495-24.858 24.724-41.353 18.38l11.076-28.803c-11.076 28.803-11.093 28.797-11.11 28.791l-0.132-0.052-0.265-0.104-0.828-0.33c-0.678-0.274-1.613-0.656-2.778-1.149-2.33-0.984-5.589-2.409-9.587-4.282-7.987-3.739-19.021-9.305-31.569-16.762-24.828-14.753-56.951-37.704-82.859-69.709-26.18-32.34-46.672-74.842-45.455-127.212 1.213-52.128 23.831-109.446 74.89-171.854 44.941-54.925 59.657-98.94 60.442-132.813 0.785-33.63-12.058-61.794-31.211-85.453-19.426-23.996-44.638-42.381-65.809-54.959-10.449-6.208-19.584-10.812-26.015-13.82-3.208-1.502-5.72-2.598-7.361-3.294-0.82-0.346-1.42-0.589-1.777-0.734l-0.347-0.141c0 0 0 0 0 0zM96 106.667c0 17.673 14.327 32 32 32h128c17.673 0 32-14.327 32-32s-14.327-32-32-32h-128c-17.673 0-32 14.327-32 32z" />
<glyph unicode="&#xe905;" glyph-name="d-pt-box" data-tags="d-pt-box" d="M128 192c23.564 0 42.667 19.102 42.667 42.667s-19.103 42.667-42.667 42.667c-23.564 0-42.667-19.102-42.667-42.667s19.103-42.667 42.667-42.667zM53.333 234.667c0-41.237 33.429-74.667 74.667-74.667s74.667 33.429 74.667 74.667c0 41.237-33.429 74.667-74.667 74.667s-74.667-33.429-74.667-74.667zM128 224c-5.891 0-10.667 4.774-10.667 10.667s4.776 10.667 10.667 10.667c5.891 0 10.667-4.774 10.667-10.667s-4.776-10.667-10.667-10.667zM539.972 0.269c-17.395-9.664-38.549-9.664-55.945 0l-358.401 199.113c-18.286 10.159-29.627 29.431-29.627 50.351l-0.001 396.54c0 20.918 11.341 40.192 29.627 50.351l358.402 199.111c17.395 9.664 38.549 9.664 55.945 0l358.4-199.111c18.287-10.159 29.628-29.433 29.628-50.351v-396.54c0-20.919-11.341-40.192-29.628-50.351l-358.4-199.113zM512 57.941l352 195.558v389.007l-352 195.555-352.001-195.555 0.001-389.007 352-195.558zM902.635 665.024c-8.585 15.449-28.066 21.015-43.516 12.432l-347.123-192.849-345.914 192.175c-15.449 8.583-34.931 3.017-43.514-12.433s-3.017-34.931 12.433-43.514l349.023-193.901c17.395-9.664 38.549-9.664 55.945 0l350.234 194.575c15.45 8.583 21.013 28.064 12.433 43.514zM512 32c-17.673 0-32 14.327-32 32v384c0 17.673 14.327 32 32 32s32-14.327 32-32v-384c0-17.673-14.327-32-32-32z" />
<glyph unicode="&#xe906;" glyph-name="d-rect-three-pts" data-tags="d-rect-three-pts" d="M160 800h736v64h-742.4c-31.811 0-57.6-25.788-57.6-57.6v-742.4h64v736zM896 266.667c17.673 0 32-14.327 32-32v-145.067c0-31.812-25.788-57.6-57.6-57.6h-145.067c-17.673 0-32 14.327-32 32s14.327 32 32 32h138.667v138.667c0 17.673 14.327 32 32 32zM896 693.333c17.673 0 32-14.327 32-32v-85.333c0-17.673-14.327-32-32-32s-32 14.327-32 32v85.333c0 17.673 14.327 32 32 32zM896 480c17.673 0 32-14.327 32-32v-85.333c0-17.673-14.327-32-32-32s-32 14.327-32 32v85.333c0 17.673 14.327 32 32 32zM266.667 64c0 17.673 14.327 32 32 32h85.333c17.673 0 32-14.327 32-32s-14.327-32-32-32h-85.333c-17.673 0-32 14.327-32 32zM480 64c0 17.673 14.327 32 32 32h85.333c17.673 0 32-14.327 32-32s-14.327-32-32-32h-85.333c-17.673 0-32 14.327-32 32zM128 789.333c23.564 0 42.667 19.103 42.667 42.667s-19.103 42.667-42.667 42.667c-23.564 0-42.667-19.103-42.667-42.667s19.103-42.667 42.667-42.667zM53.333 832c0-41.237 33.429-74.667 74.667-74.667s74.667 33.429 74.667 74.667c0 41.237-33.429 74.667-74.667 74.667s-74.667-33.429-74.667-74.667zM128 821.333c-5.891 0-10.667 4.776-10.667 10.667s4.776 10.667 10.667 10.667c5.891 0 10.667-4.776 10.667-10.667s-4.776-10.667-10.667-10.667zM128 21.333c23.564 0 42.667 19.102 42.667 42.667s-19.103 42.667-42.667 42.667c-23.564 0-42.667-19.102-42.667-42.667s19.103-42.667 42.667-42.667zM53.333 64c0-41.237 33.429-74.667 74.667-74.667s74.667 33.429 74.667 74.667c0 41.237-33.429 74.667-74.667 74.667s-74.667-33.429-74.667-74.667zM128 53.333c-5.891 0-10.667 4.774-10.667 10.667s4.776 10.667 10.667 10.667c5.891 0 10.667-4.774 10.667-10.667s-4.776-10.667-10.667-10.667zM896 789.333c23.565 0 42.667 19.103 42.667 42.667s-19.102 42.667-42.667 42.667c-23.565 0-42.667-19.103-42.667-42.667s19.102-42.667 42.667-42.667zM821.333 832c0-41.237 33.429-74.667 74.667-74.667s74.667 33.429 74.667 74.667c0 41.237-33.429 74.667-74.667 74.667s-74.667-33.429-74.667-74.667zM896 821.333c-5.892 0-10.667 4.776-10.667 10.667s4.774 10.667 10.667 10.667c5.892 0 10.667-4.776 10.667-10.667s-4.774-10.667-10.667-10.667z" />
<glyph unicode="&#xe907;" glyph-name="d-select-edge" data-tags="d-select-edge" d="M539.972 0.269c-17.395-9.664-38.549-9.664-55.945 0l-358.401 199.113c-18.286 10.159-29.627 29.431-29.627 50.351l-0.001 396.54c0 20.918 11.341 40.192 29.627 50.351l358.402 199.111c17.395 9.664 38.549 9.664 55.945 0l358.4-199.111c18.287-10.159 29.628-29.433 29.628-50.351v-396.54c0-20.919-11.341-40.192-29.628-50.351l-358.4-199.113zM512 57.941l352 195.558v389.007l-352 195.555-352.001-195.555 0.001-389.007 352-195.558zM512 32c-17.673 0-32 14.327-32 32v384c0 17.673 14.327 32 32 32s32-14.327 32-32v-384c0-17.673-14.327-32-32-32zM533.333 490.667v-426.667c0-11.78-9.553-21.333-21.333-21.333s-21.333 9.553-21.333 21.333v426.667c0 11.78 9.553 21.333 21.333 21.333s21.333-9.553 21.333-21.333zM565.333 64c0-29.457-23.876-53.333-53.333-53.333s-53.333 23.876-53.333 53.333v426.667c0 29.457 23.876 53.333 53.333 53.333s53.333-23.876 53.333-53.333v-426.667z" />
<glyph unicode="&#xe908;" glyph-name="d-select-face" data-tags="d-select-face" d="M539.972 0.269c-17.395-9.664-38.549-9.664-55.945 0l-358.401 199.113c-18.286 10.159-29.627 29.431-29.627 50.351l-0.001 396.54c0 20.918 11.341 40.192 29.627 50.351l358.402 199.111c17.395 9.664 38.549 9.664 55.945 0l358.4-199.111c18.287-10.159 29.628-29.433 29.628-50.351v-396.54c0-20.919-11.341-40.192-29.628-50.351l-358.4-199.113zM512 57.941l352 195.558v389.007l-352 195.555-352.001-195.555 0.001-389.007 352-195.558zM902.635 665.024c-8.585 15.449-28.066 21.015-43.516 12.432l-347.123-192.849-345.914 192.175c-15.449 8.583-34.931 3.017-43.514-12.433s-3.017-34.931 12.433-43.514l349.023-193.901c17.395-9.664 38.549-9.664 55.945 0l350.234 194.575c15.45 8.583 21.013 28.064 12.433 43.514zM512 32c-17.673 0-32 14.327-32 32v384c0 17.673 14.327 32 32 32s32-14.327 32-32v-384c0-17.673-14.327-32-32-32zM498.833 455.313l-332.8 184.887c-17.063 9.479-38.033-2.859-38.033-22.379v-368.098c0-9.297 5.040-17.86 13.167-22.379l332.8-184.887c17.062-9.481 38.033 2.859 38.033 22.379v368.098c0 9.297-5.039 17.86-13.167 22.379zM96 617.827c0 43.919 47.181 71.68 85.573 50.352l332.799-184.89c18.287-10.159 29.628-29.431 29.628-50.351v-368.094c0-43.921-47.181-71.684-85.572-50.355l-332.801 184.892c-18.286 10.159-29.627 29.431-29.627 50.351v368.095zM160 606.951v-353.455l320-177.775v353.451l-320 177.78zM489.506 70.438l-0.013 0.009z" />
<glyph unicode="&#xe909;" glyph-name="d-select-solid" data-tags="d-select-solid" d="M539.972 0.269c-17.395-9.664-38.549-9.664-55.945 0l-358.401 199.113c-18.286 10.159-29.627 29.431-29.627 50.351l-0.001 396.54c0 20.918 11.341 40.192 29.627 50.351l358.402 199.111c17.395 9.664 38.549 9.664 55.945 0l358.4-199.111c18.287-10.159 29.628-29.433 29.628-50.351v-396.54c0-20.919-11.341-40.192-29.628-50.351l-358.4-199.113zM512 57.941l352 195.558v389.007l-352 195.555-352.001-195.555 0.001-389.007 352-195.558zM902.635 665.024c-8.585 15.449-28.066 21.015-43.516 12.432l-347.123-192.849-345.914 192.175c-15.449 8.583-34.931 3.017-43.514-12.433s-3.017-34.931 12.433-43.514l349.023-193.901c17.395-9.664 38.549-9.664 55.945 0l350.234 194.575c15.45 8.583 21.013 28.064 12.433 43.514zM512 32c-17.673 0-32 14.327-32 32v384c0 17.673 14.327 32 32 32s32-14.327 32-32v-384c0-17.673-14.327-32-32-32z" />
<glyph unicode="&#xe90a;" glyph-name="d-three-pts-box" data-tags="d-three-pts-box" d="M512-21.333c23.565 0 42.667 19.102 42.667 42.667s-19.102 42.667-42.667 42.667c-23.565 0-42.667-19.102-42.667-42.667s19.102-42.667 42.667-42.667zM437.333 21.333c0-41.237 33.429-74.667 74.667-74.667s74.667 33.429 74.667 74.667c0 41.237-33.429 74.667-74.667 74.667s-74.667-33.429-74.667-74.667zM512 10.667c-5.892 0-10.667 4.774-10.667 10.667s4.774 10.667 10.667 10.667c5.892 0 10.667-4.774 10.667-10.667s-4.774-10.667-10.667-10.667zM128 618.667c23.564 0 42.667 19.103 42.667 42.667s-19.103 42.667-42.667 42.667c-23.564 0-42.667-19.103-42.667-42.667s19.103-42.667 42.667-42.667zM53.333 661.333c0-41.237 33.429-74.667 74.667-74.667s74.667 33.429 74.667 74.667c0 41.237-33.429 74.667-74.667 74.667s-74.667-33.429-74.667-74.667zM128 650.667c-5.891 0-10.667 4.776-10.667 10.667s4.776 10.667 10.667 10.667c5.891 0 10.667-4.776 10.667-10.667s-4.776-10.667-10.667-10.667zM128 192c23.564 0 42.667 19.102 42.667 42.667s-19.103 42.667-42.667 42.667c-23.564 0-42.667-19.102-42.667-42.667s19.103-42.667 42.667-42.667zM53.333 234.667c0-41.237 33.429-74.667 74.667-74.667s74.667 33.429 74.667 74.667c0 41.237-33.429 74.667-74.667 74.667s-74.667-33.429-74.667-74.667zM128 224c-5.891 0-10.667 4.774-10.667 10.667s4.776 10.667 10.667 10.667c5.891 0 10.667-4.774 10.667-10.667s-4.776-10.667-10.667-10.667zM539.972 0.269c-17.395-9.664-38.549-9.664-55.945 0l-358.401 199.113c-18.286 10.159-29.627 29.431-29.627 50.351l-0.001 396.54c0 20.918 11.341 40.192 29.627 50.351l358.402 199.111c17.395 9.664 38.549 9.664 55.945 0l358.4-199.111c18.287-10.159 29.628-29.433 29.628-50.351v-396.54c0-20.919-11.341-40.192-29.628-50.351l-358.4-199.113zM512 57.941l352 195.558v389.007l-352 195.555-352.001-195.555 0.001-389.007 352-195.558zM902.635 665.024c-8.585 15.449-28.066 21.015-43.516 12.432l-347.123-192.849-345.914 192.175c-15.449 8.583-34.931 3.017-43.514-12.433s-3.017-34.931 12.433-43.514l349.023-193.901c17.395-9.664 38.549-9.664 55.945 0l350.234 194.575c15.45 8.583 21.013 28.064 12.433 43.514zM512 32c-17.673 0-32 14.327-32 32v384c0 17.673 14.327 32 32 32s32-14.327 32-32v-384c0-17.673-14.327-32-32-32z" />
<glyph unicode="&#xe90b;" glyph-name="add-circle" data-tags="add-circle" d="M512 650.667c17.673 0 32-14.327 32-32v-138.667h138.667c17.673 0 32-14.327 32-32s-14.327-32-32-32h-138.667v-138.667c0-17.673-14.327-32-32-32s-32 14.327-32 32v138.667h-138.667c-17.673 0-32 14.327-32 32s14.327 32 32 32h138.667v138.667c0 17.673 14.327 32 32 32zM512 842.667c-217.968 0-394.667-176.698-394.667-394.667 0-217.967 176.698-394.667 394.667-394.667 217.967 0 394.667 176.7 394.667 394.667 0 217.968-176.7 394.667-394.667 394.667zM53.333 448c0 253.315 205.352 458.667 458.667 458.667s458.667-205.352 458.667-458.667c0-253.316-205.35-458.667-458.667-458.667-253.315 0-458.667 205.35-458.667 458.667z" />
<glyph unicode="&#xe90c;" glyph-name="add-media-image" data-tags="add-media-image" d="M586.667 64c0-17.673-14.327-32-32-32h-401.067c-31.812 0-57.6 25.788-57.6 57.6v716.8c0 31.812 25.789 57.6 57.6 57.6h716.8c31.812 0 57.6-25.789 57.6-57.6v-401.067c0-17.673-14.327-32-32-32s-32 14.327-32 32v394.667h-704v-704h394.667c17.673 0 32-14.327 32-32zM414.069 434.748c8.272 3.541 17.653 3.443 25.845-0.282l234.667-106.667c16.090-7.313 23.206-26.287 15.893-42.372-7.313-16.090-26.287-23.206-42.377-15.893l-221.804 100.821-285.681-122.436c-16.244-6.959-35.056 0.563-42.018 16.811-6.961 16.243 0.563 35.055 16.807 42.018l298.667 128zM682.667 672c29.457 0 53.333-23.878 53.333-53.333s-23.876-53.333-53.333-53.333c-29.457 0-53.333 23.878-53.333 53.333s23.876 53.333 53.333 53.333zM800 618.667c0 64.801-52.531 117.333-117.333 117.333s-117.333-52.532-117.333-117.333c0-64.801 52.531-117.333 117.333-117.333s117.333 52.532 117.333 117.333zM810.667 309.333c17.673 0 32-14.327 32-32v-96h96c17.673 0 32-14.327 32-32s-14.327-32-32-32h-96v-96c0-17.673-14.327-32-32-32s-32 14.327-32 32v96h-96c-17.673 0-32 14.327-32 32s14.327 32 32 32h96v96c0 17.673 14.327 32 32 32z" />
<glyph unicode="&#xe90d;" glyph-name="add-square" data-tags="add-square" d="M512 608c17.673 0 32-14.327 32-32v-96h96c17.673 0 32-14.327 32-32s-14.327-32-32-32h-96v-96c0-17.673-14.327-32-32-32s-32 14.327-32 32v96h-96c-17.673 0-32 14.327-32 32s14.327 32 32 32h96v96c0 17.673 14.327 32 32 32zM864 96v704h-704v-704h704zM928 89.6c0-31.812-25.788-57.6-57.6-57.6h-716.8c-31.812 0-57.6 25.788-57.6 57.6v716.8c0 31.812 25.789 57.6 57.6 57.6h716.8c31.812 0 57.6-25.789 57.6-57.6v-716.8z" />
<glyph unicode="&#xe90e;" glyph-name="add-user" data-tags="add-user" d="M853.333 693.333c17.673 0 32-14.327 32-32v-96h96c17.673 0 32-14.327 32-32s-14.327-32-32-32h-96v-96c0-17.673-14.327-32-32-32s-32 14.327-32 32v96h-96c-17.673 0-32 14.327-32 32s14.327 32 32 32h96v96c0 17.673 14.327 32 32 32zM341.333 416c-147.276 0-266.667-119.39-266.667-266.667v-42.667c0-17.673-14.327-32-32-32s-32 14.327-32 32v42.667c0 182.622 148.044 330.667 330.667 330.667s330.667-148.045 330.667-330.667v-42.667c0-17.673-14.327-32-32-32s-32 14.327-32 32v42.667c0 147.277-119.39 266.667-266.667 266.667zM341.333 757.333c-76.584 0-138.667-62.083-138.667-138.667s62.083-138.667 138.667-138.667c76.584 0 138.667 62.083 138.667 138.667s-62.083 138.667-138.667 138.667zM138.667 618.667c0 111.93 90.737 202.667 202.667 202.667 111.932 0 202.667-90.737 202.667-202.667 0-111.932-90.735-202.667-202.667-202.667-111.93 0-202.667 90.735-202.667 202.667z" />
<glyph unicode="&#xe90f;" glyph-name="airplane" data-tags="airplane" d="M512 800c-17.673 0-32-14.327-32-32v-199.145c0-19.86-10.231-38.321-27.072-48.843l-314.261-196.416v-26.611l269.763 67.439c36.353 9.088 71.57-18.406 71.57-55.881v-126.259c0-16.61-7.168-32.414-19.669-43.349l-74.735-65.395 116.101 21.111c6.814 1.237 13.794 1.237 20.608 0l116.1-21.111-74.735 65.395c-12.501 10.935-19.669 26.739-19.669 43.349v126.259c0 37.474 35.217 64.969 71.569 55.881l269.764-67.439v26.611l-314.261 196.416c-16.841 10.522-27.072 28.983-27.072 48.843v199.145c0 17.673-14.327 32-32 32zM416 768c0 53.019 42.982 96 96 96s96-42.981 96-96v-195.597l314.261-196.416c16.841-10.522 27.072-28.983 27.072-48.841v-38.357c0-37.474-35.217-64.969-71.569-55.881l-269.764 67.439v-115.162l89.988-78.737c43.998-38.498 9.284-110.477-48.235-100.019l-137.754 25.045-137.753-25.045c-57.52-10.458-92.232 61.521-48.234 100.019l89.987 78.737v115.162l-269.763-67.439c-36.354-9.088-71.57 18.406-71.57 55.881v38.357c0 19.857 10.231 38.319 27.072 48.841l314.261 196.416v195.597z" />
<glyph unicode="&#xe910;" glyph-name="airplay" data-tags="airplay" d="M96 789.333c0 17.673 14.327 32 32 32h768c17.673 0 32-14.327 32-32v-554.667c0-17.673-14.327-32-32-32h-128c-17.673 0-32 14.327-32 32s14.327 32 32 32h96v490.667h-704v-490.667h96c17.673 0 32-14.327 32-32s-14.327-32-32-32h-128c-8.487 0-16.626 3.371-22.627 9.374-6.001 5.999-9.373 14.14-9.373 22.626v554.667zM464.081 348.476c22.801 34.197 73.054 34.197 95.855 0l122.833-184.247c25.519-38.281-1.924-89.553-47.927-89.553h-245.666c-46.005 0-73.445 51.273-47.926 89.553l122.831 184.247zM512.009 304.986l-110.874-166.31h221.748l-110.874 166.31z" />
<glyph unicode="&#xe911;" glyph-name="align-bottom-box" data-tags="align-bottom-box" d="M192.5 594.403c13.136 11.823 14.201 32.056 2.379 45.192l-0.427 0.474c-11.823 13.136-32.056 14.201-45.193 2.379s-14.201-32.056-2.378-45.193l0.427-0.474c11.823-13.136 32.056-14.201 45.192-2.378zM192.5 765.069c13.136 11.823 14.201 32.056 2.379 45.192l-0.427 0.474c-11.823 13.136-32.056 14.201-45.193 2.379s-14.201-32.056-2.378-45.193l0.427-0.474c11.823-13.136 32.056-14.201 45.192-2.378zM363.167 765.069c13.136 11.823 14.201 32.056 2.379 45.192l-0.427 0.474c-11.823 13.136-32.056 14.201-45.193 2.379s-14.201-32.056-2.378-45.193l0.427-0.474c11.823-13.136 32.056-14.201 45.192-2.378zM533.833 765.069c13.137 11.823 14.204 32.056 2.381 45.192l-0.427 0.474c-11.823 13.136-32.055 14.201-45.193 2.379s-14.204-32.056-2.381-45.193l0.427-0.474c11.823-13.136 32.055-14.201 45.193-2.378zM704.499 765.069c13.137 11.823 14.204 32.056 2.381 45.192l-0.427 0.474c-11.823 13.136-32.055 14.201-45.193 2.379s-14.204-32.056-2.381-45.193l0.427-0.474c11.823-13.136 32.055-14.201 45.193-2.378zM875.166 765.069c13.137 11.823 14.204 32.056 2.381 45.192l-0.427 0.474c-11.823 13.136-32.055 14.201-45.193 2.379s-14.204-32.056-2.381-45.193l0.427-0.474c11.823-13.136 32.055-14.201 45.193-2.378zM875.166 594.403c13.137 11.823 14.204 32.056 2.381 45.192l-0.427 0.474c-11.823 13.136-32.055 14.201-45.193 2.379s-14.204-32.056-2.381-45.193l0.427-0.474c11.823-13.136 32.055-14.201 45.193-2.378zM138.667 106.667c0-17.673 14.327-32 32-32h682.667c17.673 0 32 14.327 32 32v341.333c0 17.673-14.327 32-32 32h-682.667c-17.673 0-32-14.327-32-32v-341.333zM202.667 138.667v277.333h618.667v-277.333h-618.667z" />
<glyph unicode="&#xe912;" glyph-name="align-left-box" data-tags="align-left-box" d="M658.611 767.718c11.823-13.137 32.055-14.201 45.193-2.379l0.474 0.427c13.137 11.823 14.199 32.056 2.377 45.192s-32.055 14.202-45.193 2.379l-0.474-0.427c-13.133-11.823-14.199-32.056-2.377-45.192zM829.278 767.718c11.823-13.137 32.055-14.201 45.193-2.379l0.474 0.427c13.137 11.823 14.199 32.056 2.377 45.192s-32.055 14.202-45.193 2.379l-0.474-0.427c-13.133-11.823-14.199-32.056-2.377-45.192zM829.278 597.052c11.823-13.137 32.055-14.201 45.193-2.379l0.474 0.427c13.137 11.823 14.199 32.056 2.377 45.192s-32.055 14.202-45.193 2.379l-0.474-0.427c-13.133-11.823-14.199-32.056-2.377-45.192zM829.278 426.385c11.823-13.137 32.055-14.199 45.193-2.377l0.474 0.427c13.137 11.819 14.199 32.055 2.377 45.188-11.823 13.137-32.055 14.204-45.193 2.381l-0.474-0.427c-13.133-11.823-14.199-32.055-2.377-45.193zM829.278 255.718c11.823-13.137 32.055-14.199 45.193-2.377l0.474 0.427c13.137 11.819 14.199 32.055 2.377 45.188-11.823 13.137-32.055 14.204-45.193 2.381l-0.474-0.427c-13.133-11.823-14.199-32.055-2.377-45.193zM829.278 85.052c11.823-13.137 32.055-14.199 45.193-2.377l0.474 0.427c13.137 11.819 14.199 32.055 2.377 45.188-11.823 13.137-32.055 14.204-45.193 2.381l-0.474-0.427c-13.133-11.823-14.199-32.055-2.377-45.193zM658.611 85.052c11.823-13.137 32.055-14.199 45.193-2.377l0.474 0.427c13.137 11.819 14.199 32.055 2.377 45.188-11.823 13.137-32.055 14.204-45.193 2.381l-0.474-0.427c-13.133-11.823-14.199-32.055-2.377-45.193zM170.875 821.542c-17.673 0-32-14.327-32-32v-682.666c0-17.673 14.327-32 32-32h341.334c17.673 0 32 14.327 32 32v682.666c0 17.673-14.327 32-32 32h-341.334zM202.875 757.542h277.334v-618.666h-277.334v618.666z" />
<glyph unicode="&#xe913;" glyph-name="align-right-box" data-tags="align-right-box" d="M365.806 128.29c-11.823 13.137-32.056 14.204-45.193 2.381l-0.474-0.427c-13.136-11.823-14.201-32.055-2.378-45.193s32.056-14.199 45.192-2.377l0.474 0.427c13.136 11.819 14.201 32.055 2.379 45.188zM195.139 128.29c-11.823 13.137-32.056 14.204-45.193 2.381l-0.474-0.427c-13.136-11.823-14.201-32.055-2.378-45.193s32.056-14.199 45.192-2.377l0.474 0.427c13.136 11.819 14.201 32.055 2.379 45.188zM195.139 298.957c-11.823 13.137-32.056 14.204-45.193 2.381l-0.474-0.427c-13.136-11.823-14.201-32.055-2.378-45.193s32.056-14.199 45.192-2.377l0.474 0.427c13.136 11.819 14.201 32.055 2.379 45.188zM195.139 469.623c-11.823 13.137-32.056 14.204-45.193 2.381l-0.474-0.427c-13.136-11.823-14.201-32.055-2.378-45.193s32.056-14.199 45.192-2.377l0.474 0.427c13.136 11.819 14.201 32.055 2.379 45.188zM195.139 640.292c-11.823 13.136-32.056 14.201-45.193 2.378l-0.474-0.427c-13.136-11.823-14.201-32.056-2.378-45.192s32.056-14.201 45.192-2.379l0.474 0.427c13.136 11.823 14.201 32.056 2.379 45.193zM195.139 810.959c-11.823 13.136-32.056 14.201-45.193 2.378l-0.474-0.427c-13.136-11.823-14.201-32.056-2.378-45.192s32.056-14.201 45.192-2.379l0.474 0.427c13.136 11.823 14.201 32.056 2.379 45.193zM365.806 810.959c-11.823 13.136-32.056 14.201-45.193 2.378l-0.474-0.427c-13.136-11.823-14.201-32.056-2.378-45.192s32.056-14.201 45.192-2.379l0.474 0.427c13.136 11.823 14.201 32.056 2.379 45.193zM853.542 74.458c17.673 0 32 14.327 32 32v682.668c0 17.673-14.327 32-32 32h-341.333c-17.673 0-32-14.327-32-32v-682.668c0-17.673 14.327-32 32-32h341.333zM821.542 138.458h-277.333v618.668h277.333v-618.668z" />
<glyph unicode="&#xe914;" glyph-name="align-top-box" data-tags="align-top-box" d="M192.5 301.598c13.136-11.823 14.201-32.055 2.379-45.193l-0.427-0.474c-11.823-13.137-32.056-14.204-45.193-2.381s-14.201 32.060-2.378 45.193l0.427 0.474c11.823 13.137 32.056 14.204 45.192 2.381zM192.5 130.931c13.136-11.823 14.201-32.055 2.379-45.193l-0.427-0.474c-11.823-13.137-32.056-14.204-45.193-2.381s-14.201 32.060-2.378 45.193l0.427 0.474c11.823 13.137 32.056 14.204 45.192 2.381zM363.167 130.931c13.136-11.823 14.201-32.055 2.379-45.193l-0.427-0.474c-11.823-13.137-32.056-14.204-45.193-2.381s-14.201 32.060-2.378 45.193l0.427 0.474c11.823 13.137 32.056 14.204 45.192 2.381zM533.833 130.931c13.137-11.823 14.204-32.055 2.381-45.193l-0.427-0.474c-11.823-13.137-32.055-14.204-45.193-2.381s-14.204 32.060-2.381 45.193l0.427 0.474c11.823 13.137 32.055 14.204 45.193 2.381zM704.499 130.931c13.137-11.823 14.204-32.055 2.381-45.193l-0.427-0.474c-11.823-13.137-32.055-14.204-45.193-2.381s-14.204 32.060-2.381 45.193l0.427 0.474c11.823 13.137 32.055 14.204 45.193 2.381zM875.166 130.931c13.137-11.823 14.204-32.055 2.381-45.193l-0.427-0.474c-11.823-13.137-32.055-14.204-45.193-2.381s-14.204 32.060-2.381 45.193l0.427 0.474c11.823 13.137 32.055 14.204 45.193 2.381zM875.166 301.598c13.137-11.823 14.204-32.055 2.381-45.193l-0.427-0.474c-11.823-13.137-32.055-14.204-45.193-2.381s-14.204 32.060-2.381 45.193l0.427 0.474c11.823 13.137 32.055 14.204 45.193 2.381zM138.667 789.333c0 17.673 14.327 32 32 32h682.667c17.673 0 32-14.327 32-32v-341.333c0-17.673-14.327-32-32-32h-682.667c-17.673 0-32 14.327-32 32v341.333zM202.667 757.333v-277.333h618.667v277.333h-618.667z" />
<glyph unicode="&#xe915;" glyph-name="apple-wallet" data-tags="apple-wallet" d="M96 746.667c0 64.801 52.532 117.333 117.333 117.333h597.333c64.802 0 117.333-52.532 117.333-117.333v-597.333c0-64.802-52.531-117.333-117.333-117.333h-597.333c-64.801 0-117.333 52.531-117.333 117.333v597.333zM213.333 800c-29.455 0-53.333-23.878-53.333-53.333v-597.333c0-29.457 23.878-53.333 53.333-53.333h597.333c29.457 0 53.333 23.876 53.333 53.333v597.333c0 29.455-23.876 53.333-53.333 53.333h-597.333zM399.439 288h-271.439v64h273.067c32.474 0 52.561-25.677 60.787-42.573 2.146-4.403 5.692-9.229 12.147-13.163 6.524-3.977 18.031-8.265 37.999-8.265s31.475 4.288 37.999 8.265c6.455 3.934 10.001 8.759 12.147 13.163 8.226 16.896 28.314 42.573 60.787 42.573h273.067v-64h-271.441c-0.038-0.030-0.077-0.064-0.119-0.098-0.623-0.521-1.451-1.357-2.347-2.547-0.896-1.186-1.724-2.539-2.406-3.947-6.643-13.641-17.899-28.527-36.378-39.791-18.406-11.221-41.963-17.617-71.309-17.617s-52.902 6.396-71.309 17.617c-18.481 11.264-29.734 26.15-36.376 39.791-0.686 1.408-1.513 2.761-2.406 3.947-0.899 1.19-1.725 2.027-2.349 2.547-0.042 0.034-0.082 0.068-0.121 0.098zM625.143 288.418c0 0-0.009-0.009-0.034-0.021zM896 629.333h-768v64h768v-64zM896 458.667h-768v64h768v-64z" />
<glyph unicode="&#xe916;" glyph-name="apple" data-tags="apple" d="M512 86.596l12.553-2.509c96.141-19.226 180.937-7.339 240.802 40.555 59.127 47.3 109.312 142.106 109.312 323.354 0 184.043-51.017 246.162-96.397 267.34-53.713 25.065-137.395 13.949-242.5-28.094l-21.769-8.707-22.242 7.414c-62.673 20.893-116.379 35.235-161.762 40.471-45.499 5.25-76.79 0.628-98.709-10.331-38.612-19.306-81.955-78.381-81.955-268.092 0-181.248 50.187-276.053 109.314-323.354 59.866-47.893 144.661-59.78 240.8-40.555l12.553 2.509zM512 21.329c-213.333-42.662-426.667 42.667-426.667 426.667 0 384.002 170.667 384.003 426.667 298.668 213.333 85.335 426.667 85.335 426.667-298.668 0-384-213.333-469.329-426.667-426.667zM352 874.667c0 17.673 14.327 32 32 32 47.642 0 90.206-11.983 119.919-45.407 28.932-32.552 40.081-79.325 40.081-135.926 0-17.673-14.327-32-32-32s-32 14.327-32 32c0 50.065-10.185 77.959-23.919 93.407-12.954 14.575-34.391 23.926-72.081 23.926-17.673 0-32 14.327-32 32z" />
<glyph unicode="&#xe917;" glyph-name="archery" data-tags="archery" d="M55.77 545.579c4.953 11.958 16.622 19.754 29.564 19.754h170.667c8.487 0 16.626-3.372 22.627-9.373l75.961-75.961h293.492l-30.707 30.707c-12.497 12.497-12.497 32.757 0 45.254s32.759 12.497 45.257 0l85.333-85.335c12.493-12.497 12.493-32.755 0-45.252l-85.333-85.333c-12.497-12.497-32.759-12.497-45.257 0s-12.497 32.755 0 45.252l30.707 30.707h-293.492l-75.961-75.959c-6.001-6.003-14.141-9.374-22.627-9.374h-170.667c-12.943 0-24.611 7.795-29.564 19.755-4.953 11.955-2.215 25.719 6.937 34.871l62.706 62.707-62.706 62.707c-9.152 9.152-11.889 22.915-6.937 34.872zM296.079 448l-53.333 53.333h-80.157l30.706-30.707c12.497-12.497 12.497-32.755 0-45.252l-30.706-30.707h80.157l53.333 53.333zM560.708 751.026c-36.139-75.896-59.375-182.995-59.375-303.026s23.236-227.132 59.375-303.027c37.278-78.281 82.522-112.973 121.958-112.973s84.681 34.692 121.958 112.973c36.139 75.895 59.375 182.997 59.375 303.027s-23.236 227.13-59.375 303.026c-37.278 78.283-82.522 112.974-121.958 112.974s-84.681-34.691-121.958-112.974zM502.925 778.542c39.936 83.862 101.355 149.458 179.742 149.458s139.806-65.597 179.742-149.458c41.071-86.248 65.591-203.149 65.591-330.542s-24.521-244.292-65.591-330.543c-39.936-83.861-101.355-149.457-179.742-149.457s-139.806 65.596-179.742 149.457c-41.071 86.251-65.591 203.149-65.591 330.543 0 127.392 24.521 244.294 65.591 330.542z" />
<glyph unicode="&#xe918;" glyph-name="arrow-archery" data-tags="arrow-archery" d="M96.483 149.141c-4.953 11.955-2.215 25.719 6.937 34.871l120.68 120.678c6.001 6.003 14.141 9.374 22.627 9.374h107.424l448.887 448.889h-43.422c-17.673 0-32 14.327-32 32s14.327 32 32 32h120.678c17.673 0 32-14.327 32-32v-120.68c0-17.673-14.327-32-32-32s-32 14.327-32 32v43.425l-448.888-448.886v-107.426c0-8.486-3.371-16.627-9.373-22.626l-120.679-120.683c-9.152-9.152-22.916-11.887-34.874-6.938-11.957 4.954-19.754 16.623-19.754 29.568v88.678h-88.68c-12.943 0-24.611 7.795-29.564 19.755zM335.406 250.065h-75.424l-56.68-56.678h43.425c17.673 0 32-14.327 32-32v-43.426l56.679 56.678v75.426z" />
<glyph unicode="&#xe919;" glyph-name="arrow-bl" data-tags="arrow-bl" d="M833.293 726.627c12.497-12.497 12.497-32.758 0-45.255l-500.038-500.039h455.225c17.673 0 32-14.327 32-32s-14.327-32-32-32h-532.48c-17.673 0-32 14.327-32 32v532.48c0 17.673 14.327 32 32 32s32-14.327 32-32v-455.223l500.041 500.038c12.497 12.497 32.755 12.497 45.252 0z" />
<glyph unicode="&#xe91a;" glyph-name="arrow-email-forward" data-tags="arrow-email-forward" d="M172.306 437.722c36.041 37.171 91.452 63.612 169.027 63.612h520.077l-244.036-244.041c-12.497-12.497-12.497-32.755 0-45.252s32.755-12.497 45.252 0l298.667 298.667c12.497 12.497 12.497 32.757 0 45.254l-298.667 298.667c-12.497 12.497-32.755 12.497-45.252 0s-12.497-32.758 0-45.255l244.036-244.039h-520.077c-93.091 0-165.681-32.226-214.973-83.055-48.928-50.458-73.027-117.333-73.027-183.612s24.099-133.154 73.027-183.612c49.292-50.829 121.882-83.055 214.973-83.055 17.673 0 32 14.327 32 32s-14.327 32-32 32c-77.575 0-132.986 26.441-169.027 63.612-36.406 37.542-54.973 88-54.973 139.055s18.567 101.513 54.973 139.055z" />
<glyph unicode="&#xe91b;" glyph-name="arrow-left-circle" data-tags="arrow-left-circle" d="M318.706 470.626c-12.497-12.497-12.497-32.755 0-45.252l149.335-149.333c12.497-12.497 32.755-12.497 45.252 0s12.497 32.755 0 45.252l-94.705 94.707h264.079c17.673 0 32 14.327 32 32s-14.327 32-32 32h-264.079l94.705 94.706c12.497 12.497 12.497 32.758 0 45.255s-32.755 12.497-45.252 0l-149.335-149.335zM512 842.667c-217.968 0-394.667-176.698-394.667-394.667 0-217.967 176.698-394.667 394.667-394.667 217.967 0 394.667 176.7 394.667 394.667 0 217.968-176.7 394.667-394.667 394.667zM53.333 448c0 253.315 205.352 458.667 458.667 458.667s458.667-205.352 458.667-458.667c0-253.316-205.35-458.667-458.667-458.667-253.315 0-458.667 205.35-458.667 458.667z" />
<glyph unicode="&#xe91c;" glyph-name="arrow-left" data-tags="arrow-left" d="M534.626 726.627c12.497-12.497 12.497-32.758 0-45.255l-201.371-201.373h456.079c17.673 0 32-14.327 32-32s-14.327-32-32-32h-456.079l201.371-201.374c12.497-12.497 12.497-32.755 0-45.252s-32.755-12.497-45.252 0l-256.001 256c-12.497 12.497-12.497 32.755 0 45.252l256.001 256.001c12.497 12.497 32.755 12.497 45.252 0z" />
<glyph unicode="&#xe91d;" glyph-name="arrow-right-circle" data-tags="arrow-right-circle" d="M705.293 425.374c12.497 12.497 12.497 32.755 0 45.252l-149.333 149.335c-12.497 12.497-32.755 12.497-45.252 0s-12.497-32.758 0-45.255l94.703-94.706h-264.077c-17.673 0-32-14.327-32-32s14.327-32 32-32h264.077l-94.703-94.707c-12.497-12.497-12.497-32.755 0-45.252s32.755-12.497 45.252 0l149.333 149.333zM512 842.667c-217.968 0-394.667-176.698-394.667-394.667 0-217.967 176.698-394.667 394.667-394.667 217.967 0 394.667 176.7 394.667 394.667 0 217.968-176.7 394.667-394.667 394.667zM53.333 448c0 253.315 205.352 458.667 458.667 458.667s458.667-205.352 458.667-458.667c0-253.316-205.35-458.667-458.667-458.667-253.315 0-458.667 205.35-458.667 458.667z" />
<glyph unicode="&#xe91e;" glyph-name="arrow-right" data-tags="arrow-right" d="M510.707 726.627c-12.497-12.497-12.497-32.758 0-45.255l201.37-201.373h-456.077c-17.673 0-32-14.327-32-32s14.327-32 32-32h456.077l-201.37-201.374c-12.497-12.497-12.497-32.755 0-45.252s32.755-12.497 45.252 0l256 256c12.497 12.497 12.497 32.755 0 45.252l-256 256.001c-12.497 12.497-32.755 12.497-45.252 0z" />
<glyph unicode="&#xe91f;" glyph-name="arrow-separate" data-tags="arrow-separate" d="M105.373 425.374c-12.497 12.497-12.497 32.755 0 45.252l213.333 213.335c12.497 12.497 32.758 12.497 45.255 0s12.497-32.758 0-45.255l-190.706-190.706 190.706-190.707c12.497-12.497 12.497-32.755 0-45.252s-32.758-12.497-45.255 0l-213.333 213.333zM918.626 425.374c12.497 12.497 12.497 32.755 0 45.252l-213.333 213.335c-12.497 12.497-32.755 12.497-45.252 0s-12.497-32.758 0-45.255l190.703-190.706-190.703-190.707c-12.497-12.497-12.497-32.755 0-45.252s32.755-12.497 45.252 0l213.333 213.333z" />
<glyph unicode="&#xe920;" glyph-name="arrow-union" data-tags="arrow-union" d="M617.374 425.374c-12.497 12.497-12.497 32.755 0 45.252l213.333 213.335c12.497 12.497 32.755 12.497 45.252 0s12.497-32.758 0-45.255l-190.703-190.706 190.703-190.707c12.497-12.497 12.497-32.755 0-45.252s-32.755-12.497-45.252 0l-213.333 213.333zM406.627 425.374c12.497 12.497 12.497 32.755 0 45.252l-213.333 213.335c-12.497 12.497-32.758 12.497-45.255 0s-12.497-32.758 0-45.255l190.706-190.706-190.706-190.707c-12.497-12.497-12.497-32.755 0-45.252s32.758-12.497 45.255 0l213.333 213.333z" />
<glyph unicode="&#xe921;" glyph-name="asana" data-tags="asana" d="M512 778.667c-76.582 0-138.667-62.083-138.667-138.667s62.084-138.667 138.667-138.667c76.582 0 138.667 62.083 138.667 138.667s-62.084 138.667-138.667 138.667zM309.333 640c0 111.93 90.737 202.667 202.667 202.667 111.932 0 202.667-90.737 202.667-202.667 0-111.932-90.735-202.667-202.667-202.667-111.93 0-202.667 90.735-202.667 202.667zM298.667 394.667c-76.584 0-138.667-62.084-138.667-138.667s62.083-138.667 138.667-138.667c76.584 0 138.667 62.084 138.667 138.667s-62.083 138.667-138.667 138.667zM96 256c0 111.932 90.737 202.667 202.667 202.667s202.667-90.735 202.667-202.667c0-111.932-90.737-202.667-202.667-202.667s-202.667 90.735-202.667 202.667zM725.333 394.667c-76.582 0-138.667-62.084-138.667-138.667s62.084-138.667 138.667-138.667c76.582 0 138.667 62.084 138.667 138.667s-62.084 138.667-138.667 138.667zM522.667 256c0 111.932 90.735 202.667 202.667 202.667s202.667-90.735 202.667-202.667c0-111.932-90.735-202.667-202.667-202.667s-202.667 90.735-202.667 202.667z" />
<glyph unicode="&#xe922;" glyph-name="at-sign" data-tags="at-sign" d="M512 800c194.402 0 352-157.596 352-352 0-103.906-54.78-147.354-101.261-155.102-24.606-4.1-47.735 1.297-64.004 13.043-15.505 11.2-26.735 29.466-26.735 56.725v255.998h-64v-255.998c0-47.407 20.77-85.141 53.265-108.608 31.731-22.921 72.602-30.857 111.996-24.29 81.519 13.585 154.739 87.471 154.739 218.231 0 229.751-186.249 416-416 416s-416-186.249-416-416c0-229.751 186.249-416 416-416 95.701 0 183.94 32.354 254.238 86.707 13.982 10.807 16.555 30.908 5.743 44.89-10.807 13.982-30.903 16.55-44.885 5.743-59.49-45.99-134.054-73.34-215.095-73.34-194.404 0-352 157.598-352 352 0 194.404 157.596 352 352 352zM640 650.667c-17.673 0-32-14.329-32-32.002h64c0 17.673-14.327 32.002-32 32.002zM512 586.667c-58.731 0-96-38.644-96-74.667v-64c0-17.673-14.327-32-32-32s-32 14.327-32 32v64c0 81.798 77.346 138.667 160 138.667s160-56.868 160-138.667v-64c0-17.673-14.327-32-32-32s-32 14.327-32 32v64c0 36.022-37.269 74.667-96 74.667zM512 309.333c-58.731 0-96 38.643-96 74.667v64c0 17.673-14.327 32-32 32s-32-14.327-32-32v-64c0-81.801 77.346-138.667 160-138.667s160 56.866 160 138.667v64c0 17.673-14.327 32-32 32s-32-14.327-32-32v-64c0-36.023-37.269-74.667-96-74.667z" />
<glyph unicode="&#xe923;" glyph-name="attachment" data-tags="attachment" d="M673.207 842.667c-36.8 0-72.094-14.619-98.116-40.642l-392.108-392.109c-42.035-42.031-65.65-99.046-65.65-158.49 0-59.447 23.615-116.459 65.65-158.494s99.046-65.651 158.493-65.651c59.446 0 116.457 23.616 158.492 65.651l392.107 392.107c12.497 12.497 32.759 12.497 45.257 0s12.497-32.759 0-45.257l-392.107-392.107c-54.037-54.033-127.329-84.395-203.749-84.395s-149.711 30.362-203.747 84.395c-54.037 54.037-84.395 127.33-84.395 203.75s30.358 149.709 84.395 203.746l392.106 392.107c38.025 38.025 89.6 59.387 143.373 59.387 53.777 0 105.353-21.362 143.377-59.387s59.388-89.599 59.388-143.374c0-53.776-21.363-105.349-59.388-143.374l-392.535-392.109c-22.013-22.012-51.869-34.377-83.001-34.377s-60.988 12.365-83.001 34.377c-22.013 22.016-34.38 51.87-34.38 83.004 0 31.13 12.367 60.988 34.38 82.999l362.252 361.827c12.506 12.489 32.768 12.477 45.257-0.027s12.476-32.765-0.026-45.255l-362.228-361.802c-0.005-0.004 0.004 0.004 0 0-10.003-10.010-15.635-23.595-15.635-37.743 0-14.157 5.624-27.738 15.635-37.747s23.588-15.633 37.746-15.633c14.157 0 27.735 5.623 37.746 15.633l392.533 392.107c26.022 26.023 40.644 61.317 40.644 98.119s-14.622 72.096-40.644 98.119c-26.022 26.023-61.316 40.642-98.121 40.642z" />
<glyph unicode="&#xe924;" glyph-name="bag" data-tags="bag" d="M58.735 583.597c-5.851 35.109 21.223 67.069 56.816 67.069h792.894c35.593 0 62.669-31.96 56.815-67.069l-76.8-460.798c-4.629-27.776-28.659-48.132-56.815-48.132h-639.294c-28.157 0-52.187 20.356-56.816 48.132l-76.8 460.798zM123.107 586.667l74.667-448h628.45l74.667 448h-777.783zM330.667 618.667v85.333c0 29.455 23.878 53.333 53.333 53.333h256c29.457 0 53.333-23.878 53.333-53.333v-85.333h64v85.333c0 64.801-52.531 117.333-117.333 117.333h-256c-64.801 0-117.333-52.532-117.333-117.333v-85.333h64z" />
<glyph unicode="&#xe925;" glyph-name="bank" data-tags="bank" d="M100.7 537.985c-9.216 15.080-4.462 34.776 10.618 43.991l383.999 234.667c10.244 6.26 23.13 6.26 33.374 0l384-234.667c15.078-9.216 19.836-28.911 10.62-43.991s-28.911-19.832-43.994-10.621l-367.313 224.471-367.313-224.471c-15.080-9.212-34.775-4.459-43.991 10.621zM181.333 106.667c0 17.673 14.327 32 32 32h597.333c17.673 0 32-14.327 32-32s-14.327-32-32-32h-597.333c-17.673 0-32 14.327-32 32zM394.667 576c0 17.673 14.327 32 32 32h170.667c17.673 0 32-14.327 32-32s-14.327-32-32-32h-170.667c-17.673 0-32 14.327-32 32zM256 480c17.673 0 32-14.327 32-32v-213.333c0-17.673-14.327-32-32-32s-32 14.327-32 32v213.333c0 17.673 14.327 32 32 32zM426.667 480c17.673 0 32-14.327 32-32v-213.333c0-17.673-14.327-32-32-32s-32 14.327-32 32v213.333c0 17.673 14.327 32 32 32zM597.333 480c17.673 0 32-14.327 32-32v-213.333c0-17.673-14.327-32-32-32s-32 14.327-32 32v213.333c0 17.673 14.327 32 32 32zM768 480c17.673 0 32-14.327 32-32v-213.333c0-17.673-14.327-32-32-32s-32 14.327-32 32v213.333c0 17.673 14.327 32 32 32z" />
<glyph unicode="&#xe926;" glyph-name="basketball" data-tags="basketball" d="M512 842.667c-217.968 0-394.667-176.698-394.667-394.667 0-217.967 176.698-394.667 394.667-394.667 217.967 0 394.667 176.7 394.667 394.667 0 217.968-176.7 394.667-394.667 394.667zM53.333 448c0 253.315 205.352 458.667 458.667 458.667s458.667-205.352 458.667-458.667c0-253.316-205.35-458.667-458.667-458.667-253.315 0-458.667 205.35-458.667 458.667zM512 906.667c17.673 0 32-14.327 32-32v-853.333c0-17.673-14.327-32-32-32s-32 14.327-32 32v853.333c0 17.673 14.327 32 32 32zM57.21 501.205c5.819 16.687 24.065 25.498 40.753 19.678 320.112-111.633 558.682-110.959 826.389-0.627 16.341 6.733 35.046-1.054 41.779-17.395s-1.054-35.046-17.391-41.779c-284.45-117.227-539.415-116.561-871.852-0.627-16.687 5.82-25.498 24.064-19.678 40.751zM808.61 797.185c15.232-8.966 20.309-28.581 11.341-43.811-107.447-182.508-108.668-392.444 1.067-612.711 7.881-15.817 1.446-35.029-14.37-42.91-15.821-7.881-35.034-1.446-42.914 14.37-117.828 236.523-119.036 469.719 1.067 673.721 8.969 15.23 28.582 20.307 43.81 11.341zM215.355 797.185c15.23 8.966 34.845 3.889 43.811-11.341 120.105-204.002 118.898-437.198 1.067-673.721-7.881-15.817-27.093-22.251-42.912-14.37s-22.254 27.093-14.373 42.91c109.734 220.267 108.517 430.203 1.067 612.711-8.966 15.23-3.889 34.845 11.341 43.811z" />
<glyph unicode="&#xe927;" glyph-name="battery-empty" data-tags="battery-empty" d="M981.333 565.333c17.673 0 32-14.327 32-32v-170.667c0-17.673-14.327-32-32-32s-32 14.327-32 32v170.667c0 17.673 14.327 32 32 32zM128 672c-29.455 0-53.333-23.878-53.333-53.333v-341.333c0-29.457 23.878-53.333 53.333-53.333h640c29.457 0 53.333 23.876 53.333 53.333v341.333c0 29.455-23.876 53.333-53.333 53.333h-640zM10.667 618.667c0 64.801 52.532 117.333 117.333 117.333h640c64.802 0 117.333-52.532 117.333-117.333v-341.333c0-64.802-52.531-117.333-117.333-117.333h-640c-64.801 0-117.333 52.531-117.333 117.333v341.333z" />
<glyph unicode="&#xe928;" glyph-name="behance" data-tags="behance" d="M117.333 714.667h232.413c47.404 0 79.813-14.411 100.029-33.003 20.339-18.705 30.225-43.27 30.225-67.634s-9.886-48.93-30.225-67.635c-20.215-18.591-52.624-33.004-100.029-33.004h-232.413v201.276zM468.019 480.222c9.506-6.374 18.21-13.559 26.082-21.457 33.421-33.532 49.899-78.012 49.899-122.069s-16.478-88.538-49.899-122.069c-33.732-33.839-82.785-54.626-144.355-54.626h-264.413c-17.673 0-32 14.327-32 32v554.667c0 17.673 14.358 32 32.031 32h264.382c60.765 0 109.484-18.749 143.352-49.896 33.745-31.034 50.901-72.788 50.901-114.742s-17.156-83.708-50.901-114.744c-7.62-7.006-15.987-13.385-25.079-19.063zM117.333 224h232.413c46.6 0 78.67 15.386 99.026 35.806 20.663 20.732 31.228 48.597 31.228 76.89s-10.564 56.158-31.228 76.89c-20.356 20.42-52.426 35.806-99.026 35.806h-232.413v-225.391zM632.064 416h271.872c-13.099 75.345-71.565 128-135.936 128s-122.837-52.655-135.936-128zM565.333 384c0 120.064 87.296 224 202.667 224s202.667-103.936 202.667-224c0-17.673-14.327-32-32-32h-341.333c-17.673 0-32 14.327-32 32zM597.333 416c17.673 0 32-14.327 32-32 0-92.015 65.523-160 138.667-160 50.112 0 79.723 17.856 96.806 33.954 8.819 8.311 14.707 16.567 18.308 22.549 1.792 2.978 2.991 5.342 3.674 6.793 0.337 0.725 0.546 1.212 0.64 1.429 0.013 0.034 0.026 0.064 0.034 0.081 0 0 0 0 0 0 0.017 0.043 0.021 0.051 0.009 0.030l-0.043-0.111-0.034-0.098-0.026-0.060-0.009-0.034zM917.333 277.333c29.986-11.166 29.982-11.187 29.973-11.204l-0.013-0.038-0.030-0.081-0.073-0.192-0.188-0.474c-0.141-0.358-0.32-0.802-0.533-1.318-0.435-1.033-1.024-2.381-1.779-3.989-1.515-3.217-3.721-7.518-6.746-12.54-6.029-10.018-15.433-23.095-29.248-36.117-28.194-26.569-73.25-51.379-140.698-51.379-115.371 0-202.667 103.936-202.667 224 0 17.673 14.327 32 32 32zM629.333 704c0 17.673 14.327 32 32 32h213.333c17.673 0 32-14.327 32-32s-14.327-32-32-32h-213.333c-17.673 0-32 14.327-32 32z" />
<glyph unicode="&#xe929;" glyph-name="bell-off" data-tags="bell-off" d="M276.498 713.39c16.967-4.945 26.712-22.709 21.766-39.676-6.737-23.115-10.263-47.409-10.263-72.112 0-163.676-32.911-271.179-67.509-338.835-7.583-14.831-15.22-27.691-22.566-38.767h570.077c17.673 0 32-14.323 32-32 0-17.673-14.327-32-32-32h-640.002c-13.923 0-26.249 9.007-30.484 22.268-4.199 13.15 0.51 27.499 11.65 35.605l0.372 0.29c0.484 0.384 1.405 1.135 2.703 2.291 2.594 2.304 6.699 6.217 11.834 11.998 10.253 11.546 24.703 30.643 39.435 59.452 29.402 57.498 60.491 154.795 60.491 309.698 0 30.784 4.392 61.108 12.82 90.022 4.946 16.967 22.709 26.712 39.677 21.766zM307.634 816.573c53.828 57.416 127.293 90.093 204.366 90.093s150.537-32.677 204.365-90.093c53.76-57.346 83.635-134.707 83.635-214.973 0-154.906 31.087-252.198 60.489-309.696 14.733-28.813 29.184-47.91 39.437-59.456 5.133-5.781 9.237-9.694 11.831-11.998 1.297-1.152 2.219-1.907 2.705-2.291l0.371-0.29c14.157-10.3 17.417-30.106 7.245-44.412-10.244-14.404-30.221-17.779-44.625-7.535l18.547 26.078c-18.547-26.078-18.569-26.065-18.59-26.048l-0.047 0.034-0.102 0.073-0.239 0.175-0.61 0.452c-0.469 0.354-1.054 0.802-1.749 1.353-1.391 1.105-3.221 2.62-5.423 4.578-4.407 3.917-10.3 9.604-17.165 17.335-13.747 15.475-31.3 39.044-48.567 72.811-34.598 67.657-67.507 175.164-67.507 338.837 0 64.577-24.073 126.127-66.325 171.201-42.193 45.004-98.957 69.865-157.675 69.865s-115.485-24.861-157.676-69.865c-12.087-12.893-32.338-13.547-45.231-1.459s-13.546 32.338-1.459 45.231zM422.136 91.686c15.287 8.866 34.871 3.661 43.737-11.627 4.689-8.081 11.418-14.788 19.516-19.452 8.094-4.663 17.276-7.117 26.615-7.117 9.344 0 18.526 2.453 26.62 7.117 8.098 4.663 14.827 11.371 19.516 19.452 8.866 15.287 28.45 20.493 43.738 11.627 15.287-8.87 20.489-28.45 11.622-43.738-10.313-17.779-25.118-32.542-42.931-42.799-17.813-10.261-38.007-15.659-58.564-15.659-20.553 0-40.747 5.397-58.56 15.659-17.813 10.257-32.617 25.020-42.932 42.799-8.868 15.287-3.664 34.867 11.623 43.738zM105.373 854.627c12.497 12.497 32.758 12.497 45.255 0l767.999-768.001c12.497-12.497 12.497-32.755 0-45.252s-32.755-12.497-45.252 0l-768.001 767.999c-12.497 12.497-12.497 32.758 0 45.255z" />
<glyph unicode="&#xe92a;" glyph-name="bell" data-tags="bell" d="M307.638 816.573c53.827 57.416 127.293 90.093 204.367 90.093s150.537-32.677 204.361-90.093c53.764-57.346 83.639-134.707 83.639-214.973 0-154.906 31.087-252.198 60.489-309.696 14.733-28.813 29.184-47.91 39.437-59.456 5.133-5.781 9.237-9.694 11.831-11.998 1.297-1.152 2.219-1.907 2.705-2.291l0.371-0.29c11.14-8.107 15.846-22.451 11.648-35.601-4.233-13.265-16.559-22.268-30.481-22.268h-768.002c-13.923 0-26.249 9.003-30.484 22.268-4.199 13.15 0.51 27.494 11.65 35.601l0.372 0.29c0.484 0.384 1.405 1.139 2.703 2.291 2.594 2.304 6.699 6.217 11.834 11.998 10.253 11.546 24.703 30.643 39.435 59.456 29.402 57.498 60.491 154.79 60.491 309.696 0 80.266 29.873 157.627 83.636 214.973zM826.078 224c-7.347 11.072-14.985 23.936-22.566 38.763-34.598 67.657-67.507 175.164-67.507 338.837 0 64.577-24.073 126.127-66.33 171.201-42.189 45.004-98.957 69.865-157.67 69.865-58.718 0-115.485-24.861-157.676-69.865-42.257-45.074-66.326-106.624-66.326-171.201 0-163.674-32.911-271.181-67.509-338.837-7.583-14.827-15.22-27.691-22.566-38.763h628.151zM109.417 218.048c0 0 0 0 0 0l-0.023-0.013-0.020-0.017c0.006 0.004 0.013 0.013 0.020 0.017 0.008 0.004 0.015 0.009 0.023 0.013zM422.136 91.686c15.287 8.866 34.871 3.661 43.737-11.627 4.689-8.081 11.418-14.788 19.516-19.452 8.094-4.663 17.276-7.117 26.615-7.117 9.344 0 18.526 2.453 26.62 7.117 8.098 4.663 14.827 11.371 19.516 19.452 8.866 15.287 28.45 20.493 43.738 11.627 15.287-8.87 20.489-28.45 11.622-43.738-10.313-17.779-25.118-32.542-42.931-42.799-17.813-10.261-38.007-15.659-58.564-15.659-20.553 0-40.747 5.397-58.56 15.659-17.813 10.257-32.617 25.020-42.932 42.799-8.868 15.287-3.664 34.867 11.623 43.738z" />
<glyph unicode="&#xe92b;" glyph-name="bicycle" data-tags="bicycle" d="M213.333 458.667c-76.584 0-138.667-62.084-138.667-138.667s62.083-138.667 138.667-138.667c76.584 0 138.667 62.084 138.667 138.667s-62.083 138.667-138.667 138.667zM10.667 320c0 111.932 90.737 202.667 202.667 202.667s202.667-90.735 202.667-202.667c0-111.932-90.737-202.667-202.667-202.667s-202.667 90.735-202.667 202.667zM565.333 768c0 17.673 14.327 32 32 32h192c17.673 0 32-14.327 32-32s-14.327-32-32-32h-68.207l-53.376-80.064c0.166-0.289 0.329-0.582 0.486-0.877l170.667-320.002c8.316-15.59 2.415-34.974-13.18-43.294-15.59-8.316-34.974-2.415-43.294 13.18l-161.63 303.057h-258.133c-17.673 0-32 14.327-32 32s14.327 32 32 32h238.874l42.667 64h-46.874c-17.673 0-32 14.327-32 32zM361.757 671.987c12.097 0.347 23.354-6.16 29.092-16.816l140.27-260.504h108.89c17.673 0 32-14.327 32-32s-14.327-32-32-32h-128c-11.772 0-22.596 6.464-28.177 16.828l-119.113 221.214-122.379-262.242c-7.474-16.013-26.515-22.938-42.53-15.462-16.015 7.471-22.939 26.513-15.466 42.53l149.333 319.998c5.118 10.967 15.984 18.108 28.081 18.455zM181.333 768c0 17.673 14.327 32 32 32 54.3 0 95.973-27.357 124.727-58.166 28.517-30.554 46.647-66.762 54.964-91.715 5.589-16.766-3.472-34.889-20.239-40.477s-34.889 3.472-40.477 20.239c-5.905 17.714-19.775 45.505-41.036 68.285-21.023 22.525-46.906 37.834-77.94 37.834-17.673 0-32 14.327-32 32zM810.667 458.667c-76.582 0-138.667-62.084-138.667-138.667s62.084-138.667 138.667-138.667c76.582 0 138.667 62.084 138.667 138.667s-62.084 138.667-138.667 138.667zM608 320c0 111.932 90.735 202.667 202.667 202.667s202.667-90.735 202.667-202.667c0-111.932-90.735-202.667-202.667-202.667s-202.667 90.735-202.667 202.667z" />
<glyph unicode="&#xe92c;" glyph-name="birthday-cake" data-tags="birthday-cake" d="M170.667 288c17.673 0 32-14.327 32-32v-149.333c0-29.457 23.878-53.333 53.333-53.333h512c29.457 0 53.333 23.876 53.333 53.333v149.333c0 17.673 14.327 32 32 32s32-14.327 32-32v-149.333c0-64.802-52.531-117.333-117.333-117.333h-512c-64.801 0-117.333 52.531-117.333 117.333v149.333c0 17.673 14.327 32 32 32zM128 330.667c17.673 0 32 14.327 32 32v42.667c0 29.457 23.878 53.333 53.333 53.333h597.333c29.457 0 53.333-23.876 53.333-53.333v-42.667c0-17.673 14.327-32 32-32s32 14.327 32 32v42.667c0 64.802-52.531 117.333-117.333 117.333h-597.333c-64.801 0-117.333-52.531-117.333-117.333v-42.667c0-17.673 14.327-32 32-32zM512 650.667c17.673 0 32-14.327 32-32v-128c0-17.673-14.327-32-32-32s-32 14.327-32 32v128c0 17.673 14.327 32 32 32zM532.851 898.94c-11.994 10.303-29.709 10.303-41.702 0l20.851-24.273 20.851 24.273zM512 829.847c-5.47-5.89-11.499-12.795-17.502-20.436-20.497-26.102-35.831-54.77-35.831-78.745 0-31.154 7.006-51.413 15.923-63.116 8.034-10.545 19.588-16.884 37.41-16.884s29.376 6.338 37.41 16.884c8.917 11.703 15.923 31.962 15.923 63.116 0 23.974-15.334 52.643-35.831 78.745-6.003 7.641-12.032 14.546-17.502 20.436zM532.881 850.419c0.004 0.004 0.004 0.004 0 0zM491.149 898.94c0.004 0.006 0 0 20.851-24.273 20.851 24.273 20.847 24.279 20.851 24.273l0.064-0.052 0.090-0.080 0.277-0.24 0.905-0.798c0.759-0.671 1.813-1.617 3.123-2.82 2.62-2.405 6.272-5.848 10.62-10.182 8.653-8.628 20.241-20.975 31.902-35.826 22.17-28.225 49.502-71.557 49.502-118.275 0-39.538-8.73-75.279-29.013-101.903-21.167-27.782-52.279-42.097-88.32-42.097s-67.153 14.316-88.318 42.097c-20.285 26.624-29.015 62.365-29.015 101.903 0 46.718 27.333 90.049 49.502 118.275 11.661 14.852 23.249 27.198 31.902 35.826 4.348 4.333 8 7.777 10.62 10.182 1.31 1.203 2.364 2.15 3.123 2.82l0.905 0.798 0.277 0.24 0.090 0.080 0.064 0.052zM128 394.667c17.673 0 32-14.327 32-32 0-53.018 42.981-96 96-96s96 42.982 96 96c0 17.673 14.327 32 32 32s32-14.327 32-32c0-88.367-71.634-160-160-160s-160 71.633-160 160c0 17.673 14.327 32 32 32zM384 394.667c17.673 0 32-14.327 32-32 0-53.018 42.982-96 96-96s96 42.982 96 96c0 17.673 14.327 32 32 32s32-14.327 32-32c0-88.367-71.633-160-160-160s-160 71.633-160 160c0 17.673 14.327 32 32 32zM640 394.667c17.673 0 32-14.327 32-32 0-53.018 42.982-96 96-96s96 42.982 96 96c0 17.673 14.327 32 32 32s32-14.327 32-32c0-88.367-71.633-160-160-160s-160 71.633-160 160c0 17.673 14.327 32 32 32z" />
<glyph unicode="&#xe92d;" glyph-name="bluetooth" data-tags="bluetooth" d="M489.088 904.23c-11.955-4.953-19.755-16.622-19.755-29.564v-361.625l-161.198 130.496c-13.736 11.12-33.886 8.999-45.006-4.737s-8.999-33.886 4.738-45.007l180.099-145.794-180.099-145.796c-13.737-11.119-15.857-31.27-4.738-45.005 11.12-13.739 31.27-15.859 45.006-4.74l161.198 130.496v-361.621c0-12.945 7.799-24.61 19.755-29.564 11.959-4.954 25.724-2.219 34.876 6.933l234.667 234.667c6.413 6.417 9.801 15.249 9.327 24.307s-4.774 17.489-11.823 23.194l-206.451 167.13 206.451 167.127c7.049 5.707 11.349 14.137 11.823 23.195s-2.914 17.891-9.327 24.305l-234.667 234.667c-9.152 9.152-22.916 11.889-34.876 6.937zM533.333 378.893l154.906-125.402-154.906-154.906v280.307zM533.333 517.107v280.304l154.906-154.905-154.906-125.399z" />
<glyph unicode="&#xe92e;" glyph-name="book-stack" data-tags="book-stack" d="M298.667 800c-29.455 0-53.333-23.878-53.333-53.333v-618.667c0-17.673-14.327-32-32-32s-32 14.327-32 32v618.667c0 64.801 52.532 117.333 117.333 117.333h486.4c31.812 0 57.6-25.789 57.6-57.6v-742.4c0-17.673-14.327-32-32-32s-32 14.327-32 32v736h-480zM352 661.333c0 17.673 14.327 32 32 32h256c17.673 0 32-14.327 32-32s-14.327-32-32-32h-256c-17.673 0-32 14.327-32 32zM245.333 320c0 17.673 14.327 32 32 32h533.333c17.673 0 32-14.327 32-32s-14.327-32-32-32h-533.333c-17.673 0-32 14.327-32 32zM245.333 192c0 17.673 14.327 32 32 32h533.333c17.673 0 32-14.327 32-32s-14.327-32-32-32h-533.333c-17.673 0-32 14.327-32 32zM245.333 64c0 17.673 14.327 32 32 32h533.333c17.673 0 32-14.327 32-32s-14.327-32-32-32h-533.333c-17.673 0-32 14.327-32 32zM309.333 320c0 17.673-14.327 32-32 32-28.902 0-53.94-9.958-71.538-29.069-17.201-18.675-24.462-42.999-24.462-66.931s7.26-48.256 24.462-66.931c17.599-19.11 42.637-29.069 71.538-29.069 17.673 0 32 14.327 32 32s-14.327 32-32 32c-13.765 0-20.727 4.369-24.462 8.422-4.132 4.489-7.538 12.16-7.538 23.578s3.407 19.089 7.538 23.578c3.735 4.053 10.697 8.422 24.462 8.422 17.673 0 32 14.327 32 32zM309.333 192c0 17.673-14.327 32-32 32-28.902 0-53.94-9.958-71.538-29.069-17.201-18.675-24.462-42.999-24.462-66.931s7.26-48.256 24.462-66.931c17.599-19.11 42.637-29.069 71.538-29.069 17.673 0 32 14.327 32 32s-14.327 32-32 32c-13.765 0-20.727 4.369-24.462 8.422-4.132 4.489-7.538 12.16-7.538 23.578s3.407 19.089 7.538 23.578c3.735 4.053 10.697 8.422 24.462 8.422 17.673 0 32 14.327 32 32z" />
<glyph unicode="&#xe92f;" glyph-name="book" data-tags="book" d="M256 800c-29.455 0-53.333-23.878-53.333-53.333v-597.333c0-17.673-14.327-32-32-32s-32 14.327-32 32v597.333c0 64.801 52.532 117.333 117.333 117.333h571.733c31.812 0 57.6-25.789 57.6-57.6v-559.543c0-17.673-14.327-32-32-32s-32 14.327-32 32v553.143h-565.333zM224 234.667c0 17.673 14.327 32 32 32h597.333c17.673 0 32-14.327 32-32s-14.327-32-32-32h-597.333c-17.673 0-32 14.327-32 32zM224 64c0 17.673 14.327 32 32 32h597.333c17.673 0 32-14.327 32-32s-14.327-32-32-32h-597.333c-17.673 0-32 14.327-32 32zM288 234.667c0 17.673-14.327 32-32 32-64.801 0-117.333-52.531-117.333-117.333s52.532-117.333 117.333-117.333c17.673 0 32 14.327 32 32s-14.327 32-32 32c-29.455 0-53.333 23.876-53.333 53.333s23.878 53.333 53.333 53.333c17.673 0 32 14.327 32 32zM352 661.333c0 17.673 14.327 32 32 32h256c17.673 0 32-14.327 32-32s-14.327-32-32-32h-256c-17.673 0-32 14.327-32 32z" />
<glyph unicode="&#xe930;" glyph-name="bookmark-empty" data-tags="bookmark-empty" d="M298.667 800c-29.455 0-53.333-23.878-53.333-53.333v-624.055l203.217 130.641c38.652 24.849 88.247 24.849 126.899 0l203.217-130.641v624.055c0 29.455-23.876 53.333-53.333 53.333h-426.667zM181.333 746.667c0 64.801 52.532 117.333 117.333 117.333h426.667c64.802 0 117.333-52.532 117.333-117.333v-682.667c0-11.708-6.391-22.477-16.666-28.087s-22.793-5.158-32.64 1.169l-252.523 162.338c-17.566 11.294-40.111 11.294-57.677 0l-252.524-162.338c-9.847-6.327-22.364-6.78-32.638-1.169s-16.666 16.38-16.666 28.087v682.667z" />
<glyph unicode="&#xe931;" glyph-name="boxing-glove" data-tags="boxing-glove" d="M354.182 813.573c50.177 39.231 124.44 50.427 218.503 50.427 94.097 0 175.134-11.15 231.501-60.23 57.472-50.044 81.148-131.883 81.148-251.043 0-180.252-42.667-306.417-70.161-357.523v-131.204c0-17.673-14.327-32-32-32h-420.974c-17.673 0-32 14.327-32 32v123.051c-70.179 52.378-121.222 134.473-152.556 211.008-16.873 41.212-28.559 82.069-34.479 117.803-5.706 34.444-6.813 68.483 1.592 93.576 15.657 46.74 58.524 59.291 92.014 60.223 16.379 0.456 33.047-1.58 48.372-4.797 5.609 64.454 25.573 114.725 69.039 148.71zM394.198 171.635v-75.635h356.974v75.635h-356.974zM763.895 235.635c21.978 46.596 57.438 157.227 57.438 317.092 0 113.567-23.1 171.364-59.174 202.775-37.184 32.375-96.474 44.497-189.474 44.497-93.039 0-147.404-12.077-179.083-36.846-29.292-22.902-46.179-62.713-46.179-140.609 0-10.609-5.257-20.528-14.037-26.483s-19.94-7.171-29.797-3.248c-17.050 6.787-42.965 13.485-65.039 12.871-22.25-0.619-30.056-7.462-33.109-16.576-3.288-9.817-4.396-31.050 0.861-62.79 5.044-30.447 15.283-66.679 30.568-104.013 29.612-72.329 76.224-144.183 135.3-186.671h391.725zM292.734 645.114c12.466 12.527 32.727 12.577 45.254 0.111 11.505-11.448 49.054-37.228 94.366-37.228h210.487c17.673 0 32-14.327 32-32s-14.327-32-32-32h-210.487c-66.949 0-119.831 36.28-139.509 55.863-12.527 12.466-12.577 32.727-0.111 45.255zM315.417 654.542c17.673 0 32-14.327 32-32 0-77.683 16.847-115.013 32.793-132.865 15.156-16.964 34.025-21.316 52.144-21.316 17.673 0 32-14.327 32-32s-14.327-32-32-32c-28.657 0-68.256 7.283-99.875 42.679-30.829 34.513-49.063 90.276-49.063 175.502 0 17.673 14.327 32 32 32z" />
<glyph unicode="&#xe932;" glyph-name="brain" data-tags="brain" d="M330.658 362.667c0 17.673-14.327 32-32 32-88.366 0-160-71.633-160-160s71.634-160 160-160c18.643 0 36.608 3.2 53.33 9.114 16.663 5.888 25.396 24.171 19.507 40.832-5.89 16.666-24.172 25.399-40.835 19.507-9.968-3.52-20.725-5.453-32.003-5.453-53.020 0-96 42.982-96 96s42.98 96 96 96c17.673 0 32 14.327 32 32zM168.872 598.225c-11.539 13.386-31.744 14.884-45.131 3.346-43.061-37.117-70.403-92.166-70.403-153.563 0-80.457 46.887-149.901 114.686-182.618 15.917-7.68 35.046-1.003 42.726 14.916 7.68 15.915 1.003 35.046-14.914 42.726-46.516 22.443-78.499 70.007-78.499 124.975 0 41.997 18.63 79.607 48.188 105.086 13.387 11.539 14.885 31.744 3.346 45.131zM234.675 714.667c16.849 0 32.311-5.542 44.789-14.917 14.129-10.616 34.19-7.767 44.805 6.362s7.767 34.19-6.362 44.806c-23.181 17.416-52.046 27.75-83.232 27.75-76.583 0-138.667-62.083-138.667-138.667 0-28.444 8.599-54.977 23.344-77.021 9.826-14.69 29.7-18.633 44.39-8.806s18.633 29.7 8.807 44.39c-7.921 11.843-12.541 26.052-12.541 41.438 0 41.237 33.429 74.667 74.667 74.667zM405.333 842.667c41.237 0 74.667-33.429 74.667-74.667v-661.333c0-17.673 14.327-32 32-32s32 14.327 32 32v661.333c0 76.584-62.084 138.667-138.667 138.667s-138.667-62.083-138.667-138.667c0-21.076 4.724-41.137 13.2-59.106 7.54-15.984 26.61-22.829 42.594-15.289s22.829 26.61 15.289 42.594c-4.533 9.609-7.083 20.363-7.083 31.802 0 41.237 33.429 74.667 74.667 74.667zM512 138.667c-17.673 0-32-14.327-32-32 0-29.457-23.876-53.333-53.333-53.333-29.455 0-53.333 23.876-53.333 53.333 0 17.673-14.327 32-32 32s-32-14.327-32-32c0-64.802 52.532-117.333 117.333-117.333s117.333 52.531 117.333 117.333c0 17.673-14.327 32-32 32zM512 693.333c-17.673 0-32-14.327-32-32 0-88.366 71.633-160 160-160 17.673 0 32 14.327 32 32s-14.327 32-32 32c-53.018 0-96 42.981-96 96 0 17.673-14.327 32-32 32zM693.342 362.667c0 17.673 14.327 32 32 32 88.367 0 160-71.633 160-160s-71.633-160-160-160c-18.641 0-36.608 3.2-53.329 9.114-16.666 5.888-25.399 24.171-19.507 40.832 5.888 16.666 24.171 25.399 40.832 19.507 9.971-3.52 20.727-5.453 32.004-5.453 53.018 0 96 42.982 96 96s-42.982 96-96 96c-17.673 0-32 14.327-32 32zM855.13 598.225c11.537 13.386 31.744 14.884 45.129 3.346 43.063-37.117 70.404-92.166 70.404-153.563 0-80.457-46.886-149.901-114.688-182.618-15.915-7.68-35.046-1.003-42.726 14.916-7.68 15.915-1.003 35.046 14.916 42.726 46.515 22.443 78.498 70.007 78.498 124.975 0 41.997-18.633 79.607-48.188 105.086-13.389 11.539-14.886 31.744-3.345 45.131zM789.325 714.667c-16.849 0-32.311-5.542-44.787-14.917-14.131-10.616-34.193-7.767-44.809 6.362s-7.765 34.19 6.362 44.806c23.185 17.416 52.049 27.75 83.234 27.75 76.582 0 138.667-62.083 138.667-138.667 0-28.444-8.597-54.977-23.343-77.021-9.826-14.69-29.7-18.633-44.39-8.806s-18.633 29.7-8.806 44.39c7.919 11.843 12.54 26.052 12.54 41.438 0 41.237-33.429 74.667-74.667 74.667zM618.667 842.667c-41.237 0-74.667-33.429-74.667-74.667 0-17.673-14.327-32-32-32s-32 14.327-32 32c0 76.584 62.084 138.667 138.667 138.667s138.667-62.083 138.667-138.667c0-21.076-4.723-41.137-13.201-59.106-7.539-15.984-26.607-22.829-42.594-15.289-15.983 7.54-22.827 26.61-15.287 42.594 4.531 9.609 7.083 20.363 7.083 31.802 0 41.237-33.429 74.667-74.667 74.667zM512 138.667c17.673 0 32-14.327 32-32 0-29.457 23.876-53.333 53.333-53.333s53.333 23.876 53.333 53.333c0 17.673 14.327 32 32 32s32-14.327 32-32c0-64.802-52.531-117.333-117.333-117.333s-117.333 52.531-117.333 117.333c0 17.673 14.327 32 32 32z" />
<glyph unicode="&#xe933;" glyph-name="bubble-error" data-tags="bubble-error" d="M512 842.667c-217.968 0-394.667-176.698-394.667-394.667 0-71.94 19.218-139.294 52.78-197.312 3.824-6.609 5.158-14.37 3.76-21.879l-27.21-146.146 146.146 27.213c7.508 1.395 15.27 0.064 21.88-3.763 58.018-33.562 125.37-52.779 197.31-52.779 217.967 0 394.667 176.7 394.667 394.667 0 13.342-0.661 26.522-1.95 39.505-1.745 17.587 11.093 33.259 28.681 35.004 17.587 1.749 33.259-11.093 35.008-28.681 1.498-15.083 2.261-30.37 2.261-45.828 0-253.316-205.35-458.667-458.667-458.667-79.202 0-153.798 20.1-218.873 55.501l-180.603-33.626c-10.37-1.933-21.026 1.374-28.485 8.832s-10.763 18.112-8.832 28.484l33.625 180.604c-35.398 65.075-55.499 139.669-55.499 218.871 0 253.315 205.352 458.667 458.667 458.667 15.458 0 30.746-0.766 45.828-2.263 17.587-1.746 30.43-17.419 28.681-35.005-1.745-17.586-17.417-30.428-35.004-28.682-12.983 1.289-26.163 1.95-39.505 1.95zM707.874 849.45c12.497 12.497 32.755 12.497 45.252 0l67.883-67.882 67.883 67.882c12.497 12.497 32.759 12.497 45.257 0s12.497-32.758 0-45.255l-67.883-67.882 67.883-67.882c12.497-12.497 12.497-32.758 0-45.255s-32.759-12.497-45.257 0l-67.883 67.882-67.883-67.882c-12.497-12.497-32.755-12.497-45.252 0s-12.497 32.758 0 45.255l67.883 67.882-67.883 67.882c-12.497 12.497-12.497 32.758 0 45.255z" />
<glyph unicode="&#xe934;" glyph-name="bubble-star" data-tags="bubble-star" d="M789.342 817.539l-22.016-46.688c-4.544-9.631-13.581-16.372-24.107-17.982l-52.194-7.985 38.703-39.455c7.142-7.278 10.385-17.523 8.734-27.584l-8.819-53.817 44.271 24.366c9.609 5.288 21.252 5.288 30.861 0l44.267-24.366-8.819 53.817c-1.647 10.061 1.596 20.306 8.734 27.584l38.707 39.455-52.198 7.985c-10.526 1.61-19.558 8.351-24.102 17.982l-22.020 46.688zM748.228 880.398c16.521 35.025 65.711 35.025 82.231 0l31.522-66.841 69.909-10.694c38.861-5.945 50.441-52.865 25.51-78.276l-51.401-52.397 12.19-74.374c5.662-34.551-30.391-68.173-66.705-48.185l-62.144 34.203-62.14-34.203c-36.314-19.988-72.367 13.635-66.705 48.185l12.186 74.374-51.401 52.397c-24.926 25.411-13.346 72.332 25.515 78.276l69.909 10.694 31.522 66.841zM512 842.667c-217.968 0-394.667-176.698-394.667-394.667 0-71.94 19.218-139.294 52.78-197.312 3.824-6.609 5.158-14.37 3.76-21.879l-27.21-146.146 146.146 27.213c7.508 1.395 15.27 0.064 21.88-3.763 58.018-33.562 125.37-52.779 197.31-52.779 217.967 0 394.667 176.7 394.667 394.667 0 13.342-0.661 26.522-1.95 39.505-1.745 17.587 11.093 33.259 28.681 35.004 17.587 1.749 33.259-11.093 35.008-28.681 1.498-15.083 2.261-30.37 2.261-45.828 0-253.316-205.35-458.667-458.667-458.667-79.202 0-153.798 20.1-218.873 55.501l-180.603-33.626c-10.37-1.933-21.026 1.374-28.485 8.832s-10.763 18.112-8.832 28.484l33.625 180.604c-35.398 65.075-55.499 139.669-55.499 218.871 0 253.315 205.352 458.667 458.667 458.667 15.458 0 30.746-0.766 45.828-2.263 17.587-1.746 30.43-17.419 28.681-35.005-1.745-17.586-17.417-30.428-35.004-28.682-12.983 1.289-26.163 1.95-39.505 1.95z" />
<glyph unicode="&#xe935;" glyph-name="bus" data-tags="bus" d="M320.513 301.15c13.13-11.831 14.185-32.064 2.355-45.193l-0.427-0.474c-11.83-13.133-32.064-14.187-45.194-2.355-13.13 11.827-14.185 32.060-2.355 45.193l0.427 0.474c11.829 13.129 32.063 14.182 45.193 2.355zM747.179 301.15c13.133-11.831 14.187-32.064 2.355-45.193l-0.427-0.474c-11.827-13.133-32.064-14.187-45.193-2.355-13.129 11.827-14.187 32.060-2.355 45.193l0.427 0.474c11.827 13.129 32.064 14.182 45.193 2.355zM96 448c0 17.673 14.327 32 32 32h768c17.673 0 32-14.327 32-32v-298.667c0-41.237-33.429-74.667-74.667-74.667h-682.667c-41.236 0-74.667 33.429-74.667 74.667v298.667zM160 416v-266.667c0-5.892 4.775-10.667 10.667-10.667h682.667c5.892 0 10.667 4.774 10.667 10.667v266.667h-704zM96 704c0 111.93 90.737 202.667 202.667 202.667h426.667c111.927 0 202.667-90.737 202.667-202.667v-85.333c0-17.673-14.327-32-32-32s-32 14.327-32 32v85.333c0 76.583-62.084 138.667-138.667 138.667h-426.667c-76.584 0-138.667-62.083-138.667-138.667v-85.333c0-17.673-14.327-32-32-32s-32 14.327-32 32v85.333zM266.667 618.667c0 17.673 14.327 32 32 32h426.667c17.673 0 32-14.327 32-32s-14.327-32-32-32h-426.667c-17.673 0-32 14.327-32 32zM192 138.667c17.673 0 32-14.327 32-32v-74.667h106.667v74.667c0 17.673 14.327 32 32 32s32-14.327 32-32v-81.067c0-31.812-25.789-57.6-57.6-57.6h-119.467c-31.811 0-57.6 25.788-57.6 57.6v81.067c0 17.673 14.327 32 32 32zM661.333 138.667c17.673 0 32-14.327 32-32v-74.667h106.667v74.667c0 17.673 14.327 32 32 32s32-14.327 32-32v-81.067c0-31.812-25.788-57.6-57.6-57.6h-119.467c-31.812 0-57.6 25.788-57.6 57.6v81.067c0 17.673 14.327 32 32 32z" />
<glyph unicode="&#xe936;" glyph-name="camera" data-tags="camera" d="M378.667 800l-92.8-123.733c-22.159-29.545-56.935-46.933-93.867-46.933h-21.333c-29.455 0-53.333-23.878-53.333-53.333v-426.667c0-29.457 23.878-53.333 53.333-53.333h682.667c29.457 0 53.333 23.876 53.333 53.333v426.667c0 29.455-23.876 53.333-53.333 53.333h-21.333c-36.932 0-71.71 17.388-93.867 46.933l-92.8 123.733h-266.667zM329.387 840.96c10.878 14.504 27.95 23.040 46.080 23.040h273.067c18.129 0 35.2-8.536 46.080-23.040l94.72-126.293c10.074-13.43 25.882-21.333 42.667-21.333h21.333c64.802 0 117.333-52.532 117.333-117.333v-426.667c0-64.802-52.531-117.333-117.333-117.333h-682.667c-64.801 0-117.333 52.531-117.333 117.333v426.667c0 64.801 52.532 117.333 117.333 117.333h21.333c16.787 0 32.594 7.904 42.667 21.333l94.72 126.293zM512 544c-76.582 0-138.667-62.084-138.667-138.667s62.084-138.667 138.667-138.667c76.582 0 138.667 62.084 138.667 138.667s-62.084 138.667-138.667 138.667zM309.333 405.333c0 111.932 90.737 202.667 202.667 202.667 111.932 0 202.667-90.735 202.667-202.667s-90.735-202.667-202.667-202.667c-111.93 0-202.667 90.735-202.667 202.667z" />
<glyph unicode="&#xe937;" glyph-name="cancel" data-tags="cancel" d="M265.688 694.313c12.497 12.497 32.758 12.497 45.255 0l201.057-201.057 201.062 201.057c12.493 12.497 32.755 12.497 45.252 0s12.497-32.758 0-45.255l-201.058-201.059 201.058-201.058c12.497-12.497 12.497-32.759 0-45.257s-32.759-12.497-45.252 0l-201.062 201.058-201.057-201.058c-12.497-12.497-32.758-12.497-45.255 0s-12.497 32.759 0 45.257l201.059 201.058-201.059 201.059c-12.497 12.497-12.497 32.758 0 45.255z" />
<glyph unicode="&#xe938;" glyph-name="car" data-tags="car" d="M309.333 533.333c0 17.673 14.327 32 32 32h341.333c17.673 0 32-14.327 32-32s-14.327-32-32-32h-341.333c-17.673 0-32 14.327-32 32zM266.667 362.667c0 17.673 14.327 32 32 32h42.667c17.673 0 32-14.327 32-32s-14.327-32-32-32h-42.667c-17.673 0-32 14.327-32 32zM650.667 362.667c0 17.673 14.327 32 32 32h42.667c17.673 0 32-14.327 32-32s-14.327-32-32-32h-42.667c-17.673 0-32 14.327-32 32zM312.268 757.333h399.463c21.333 0 40.619-12.715 49.020-32.324l98.935-230.848c2.846-6.639 4.314-13.786 4.314-21.009v-249.152h-704v249.152c0 7.223 1.467 14.37 4.312 21.009l98.935 230.848c8.404 19.61 27.686 32.324 49.021 32.324zM864 160v-64h-106.667v64h106.667zM693.333 160v-70.4c0-31.812 25.788-57.6 57.6-57.6h119.467c31.812 0 57.6 25.788 57.6 57.6v383.552c0 15.889-3.226 31.616-9.489 46.221l-98.931 230.847c-18.492 43.142-60.911 71.113-107.849 71.113h-399.463c-46.937 0-89.357-27.972-107.846-71.113l-98.935-230.847c-6.259-14.605-9.487-30.332-9.487-46.221v-383.552c0-31.812 25.789-57.6 57.6-57.6h119.467c31.811 0 57.6 25.788 57.6 57.6v70.4h362.667zM266.667 160v-64h-106.667v64h106.667z" />
<glyph unicode="&#xe939;" glyph-name="cart-alt" data-tags="cart-alt" d="M832 21.333c35.345 0 64 28.655 64 64s-28.655 64-64 64c-35.345 0-64-28.655-64-64s28.655-64 64-64zM832 117.333c-17.673 0-32-14.327-32-32s14.327-32 32-32c17.673 0 32 14.327 32 32s-14.327 32-32 32zM736 85.333c0 53.018 42.982 96 96 96s96-42.982 96-96c0-53.018-42.982-96-96-96s-96 42.982-96 96zM405.333 21.333c35.345 0 64 28.655 64 64s-28.655 64-64 64c-35.346 0-64-28.655-64-64s28.654-64 64-64zM405.333 117.333c-17.673 0-32-14.327-32-32s14.327-32 32-32c17.673 0 32 14.327 32 32s-14.327 32-32 32zM309.333 85.333c0 53.018 42.981 96 96 96 53.018 0 96-42.982 96-96s-42.982-96-96-96c-53.019 0-96 42.982-96 96zM188.765 809.837c6.080 7.285 15.079 11.496 24.568 11.496h725.333c9.489 0 18.487-4.211 24.567-11.496s8.614-16.893 6.916-26.228l-85.333-469.335c-2.765-15.215-16.017-26.274-31.484-26.274h-554.666c-15.465 0-28.718 11.059-31.484 26.274l-85.333 469.335c-1.697 9.335 0.836 18.943 6.916 26.228zM251.677 757.333l73.697-405.333h131.036l-27.635 405.333h-177.098zM492.924 757.333l27.635-405.333h111.552l36.847 405.333h-176.034zM733.222 757.333l-36.847-405.333h130.253l73.694 405.333h-167.1zM53.333 874.667c0 17.673 14.327 32 32 32 102.779 0 149.089-69.75 159.045-109.572 4.286-17.145-6.138-34.519-23.284-38.806s-34.519 6.138-38.806 23.284c-4.266 17.066-29.068 61.094-96.955 61.094-17.673 0-32 14.327-32 32zM155.677 271.313c-10.987-8.311-17.011-19.857-17.011-36.646s6.024-28.335 17.011-36.646c12.14-9.182 33.546-16.687 67.502-16.687h608.82c17.673 0 32-14.327 32-32s-14.327-32-32-32h-608.82c-42.174 0-79.025 9.161-106.109 29.645-28.237 21.355-42.404 52.476-42.404 87.689s14.167 66.334 42.404 87.689c27.084 20.484 63.934 29.645 106.109 29.645h630.154c17.673 0 32-14.327 32-32s-14.327-32-32-32h-630.154c-33.956 0-55.362-7.505-67.502-16.687z" />
<glyph unicode="&#xe93a;" glyph-name="cash" data-tags="cash" d="M170.667 714.667c-29.455 0-53.333-23.878-53.333-53.333v-426.667c0-29.457 23.878-53.333 53.333-53.333h682.667c29.457 0 53.333 23.876 53.333 53.333v426.667c0 29.455-23.876 53.333-53.333 53.333h-682.667zM53.333 661.333c0 64.801 52.532 117.333 117.333 117.333h682.667c64.802 0 117.333-52.532 117.333-117.333v-426.667c0-64.802-52.531-117.333-117.333-117.333h-682.667c-64.801 0-117.333 52.531-117.333 117.333v426.667zM512 544c53.018 0 96-42.982 96-96s-42.982-96-96-96c-53.018 0-96 42.982-96 96s42.982 96 96 96zM672 448c0 88.366-71.633 160-160 160s-160-71.634-160-160c0-88.367 71.634-160 160-160s160 71.633 160 160zM811.166 471.825c13.137-11.823 14.204-32.055 2.381-45.193l-0.427-0.474c-11.823-13.133-32.055-14.199-45.193-2.377s-14.204 32.055-2.381 45.193l0.427 0.474c11.823 13.137 32.055 14.199 45.193 2.377zM256.5 471.825c13.136-11.823 14.201-32.055 2.379-45.193l-0.427-0.474c-11.823-13.133-32.056-14.199-45.193-2.377s-14.201 32.055-2.378 45.193l0.427 0.474c11.823 13.137 32.056 14.199 45.192 2.377z" />
<glyph unicode="&#xe93b;" glyph-name="center-align" data-tags="center-align" d="M192.5 301.171c13.136-11.823 14.201-32.055 2.379-45.193l-0.427-0.474c-11.823-13.137-32.056-14.204-45.193-2.381s-14.201 32.055-2.378 45.193l0.427 0.474c11.823 13.137 32.056 14.204 45.192 2.381zM192.5 130.505c13.136-11.823 14.201-32.055 2.379-45.193l-0.427-0.474c-11.823-13.137-32.056-14.204-45.193-2.381s-14.201 32.055-2.378 45.193l0.427 0.474c11.823 13.137 32.056 14.204 45.192 2.381zM192.5 642.504c13.136-11.823 14.201-32.056 2.379-45.192l-0.427-0.474c-11.823-13.136-32.056-14.201-45.193-2.379s-14.201 32.056-2.378 45.193l0.427 0.474c11.823 13.136 32.056 14.201 45.192 2.378zM192.5 813.17c13.136-11.823 14.201-32.056 2.379-45.192l-0.427-0.474c-11.823-13.136-32.056-14.201-45.193-2.379s-14.201 32.056-2.378 45.193l0.427 0.474c11.823 13.136 32.056 14.201 45.192 2.378zM192.5 471.838c13.136-11.823 14.201-32.055 2.379-45.193l-0.427-0.474c-11.823-13.137-32.056-14.204-45.193-2.381s-14.201 32.055-2.378 45.193l0.427 0.474c11.823 13.137 32.056 14.204 45.192 2.381zM363.167 130.505c13.136-11.823 14.201-32.055 2.379-45.193l-0.427-0.474c-11.823-13.137-32.056-14.204-45.193-2.381s-14.201 32.055-2.378 45.193l0.427 0.474c11.823 13.137 32.056 14.204 45.192 2.381zM533.833 130.505c13.137-11.823 14.204-32.055 2.381-45.193l-0.427-0.474c-11.823-13.137-32.055-14.204-45.193-2.381s-14.204 32.055-2.381 45.193l0.427 0.474c11.823 13.137 32.055 14.204 45.193 2.381zM704.499 130.505c13.137-11.823 14.204-32.055 2.381-45.193l-0.427-0.474c-11.823-13.137-32.055-14.204-45.193-2.381s-14.204 32.055-2.381 45.193l0.427 0.474c11.823 13.137 32.055 14.204 45.193 2.381zM875.166 130.505c13.137-11.823 14.204-32.055 2.381-45.193l-0.427-0.474c-11.823-13.137-32.055-14.204-45.193-2.381s-14.204 32.055-2.381 45.193l0.427 0.474c11.823 13.137 32.055 14.204 45.193 2.381zM875.166 301.171c13.137-11.823 14.204-32.055 2.381-45.193l-0.427-0.474c-11.823-13.137-32.055-14.204-45.193-2.381s-14.204 32.055-2.381 45.193l0.427 0.474c11.823 13.137 32.055 14.204 45.193 2.381zM875.166 471.838c13.137-11.823 14.204-32.055 2.381-45.193l-0.427-0.474c-11.823-13.137-32.055-14.204-45.193-2.381s-14.204 32.055-2.381 45.193l0.427 0.474c11.823 13.137 32.055 14.204 45.193 2.381zM875.166 642.504c13.137-11.823 14.204-32.056 2.381-45.192l-0.427-0.474c-11.823-13.136-32.055-14.201-45.193-2.379s-14.204 32.056-2.381 45.193l0.427 0.474c11.823 13.136 32.055 14.201 45.193 2.378zM875.166 813.17c13.137-11.823 14.204-32.056 2.381-45.192l-0.427-0.474c-11.823-13.136-32.055-14.201-45.193-2.379s-14.204 32.056-2.381 45.193l0.427 0.474c11.823 13.136 32.055 14.201 45.193 2.378zM704.499 813.17c13.137-11.823 14.204-32.056 2.381-45.192l-0.427-0.474c-11.823-13.136-32.055-14.201-45.193-2.379s-14.204 32.056-2.381 45.193l0.427 0.474c11.823 13.136 32.055 14.201 45.193 2.378zM533.833 813.17c13.137-11.823 14.204-32.056 2.381-45.192l-0.427-0.474c-11.823-13.136-32.055-14.201-45.193-2.379s-14.204 32.056-2.381 45.193l0.427 0.474c11.823 13.136 32.055 14.201 45.193 2.378zM363.167 813.17c13.136-11.823 14.201-32.056 2.379-45.192l-0.427-0.474c-11.823-13.136-32.056-14.201-45.193-2.379s-14.201 32.056-2.378 45.193l0.427 0.474c11.823 13.136 32.056 14.201 45.192 2.378zM309.333 618.667c0 17.673 14.327 32 32 32h341.333c17.673 0 32-14.327 32-32v-341.333c0-17.673-14.327-32-32-32h-341.333c-17.673 0-32 14.327-32 32v341.333zM373.333 586.667v-277.333h277.333v277.333h-277.333z" />
<glyph unicode="&#xe93c;" glyph-name="chat-add" data-tags="chat-add" d="M512 608c17.673 0 32-14.327 32-32v-96h96c17.673 0 32-14.327 32-32s-14.327-32-32-32h-96v-96c0-17.673-14.327-32-32-32s-32 14.327-32 32v96h-96c-17.673 0-32 14.327-32 32s14.327 32 32 32h96v96c0 17.673 14.327 32 32 32zM512 842.667c-217.968 0-394.667-176.698-394.667-394.667 0-71.94 19.218-139.294 52.78-197.312 3.824-6.609 5.158-14.37 3.76-21.879l-27.21-146.146 146.146 27.213c7.508 1.395 15.27 0.064 21.88-3.763 58.018-33.562 125.37-52.779 197.31-52.779 217.967 0 394.667 176.7 394.667 394.667s-176.7 394.667-394.667 394.667zM53.333 448c0 253.315 205.352 458.667 458.667 458.667s458.667-205.352 458.667-458.667c0-253.316-205.35-458.667-458.667-458.667-79.202 0-153.798 20.1-218.873 55.501l-180.603-33.626c-10.37-1.933-21.026 1.374-28.485 8.832s-10.763 18.112-8.832 28.484l33.625 180.604c-35.398 65.075-55.499 139.669-55.499 218.871z" />
<glyph unicode="&#xe93d;" glyph-name="chat-bubble-empty" data-tags="chat-bubble-empty" d="M512 842.667c-217.968 0-394.667-176.698-394.667-394.667 0-71.94 19.218-139.294 52.78-197.312 3.824-6.609 5.158-14.37 3.76-21.879l-27.21-146.146 146.146 27.213c7.508 1.395 15.27 0.064 21.88-3.763 58.018-33.562 125.37-52.779 197.31-52.779 217.967 0 394.667 176.7 394.667 394.667s-176.7 394.667-394.667 394.667zM53.333 448c0 253.315 205.352 458.667 458.667 458.667s458.667-205.352 458.667-458.667c0-253.316-205.35-458.667-458.667-458.667-79.202 0-153.798 20.1-218.873 55.501l-180.603-33.626c-10.37-1.933-21.026 1.374-28.485 8.832s-10.763 18.112-8.832 28.484l33.625 180.604c-35.398 65.075-55.499 139.669-55.499 218.871z" />
<glyph unicode="&#xe93e;" glyph-name="chat-bubble" data-tags="chat-bubble" d="M725.333 426.667c11.78 0 21.333 9.553 21.333 21.333s-9.553 21.333-21.333 21.333c-11.78 0-21.333-9.553-21.333-21.333s9.553-21.333 21.333-21.333zM725.333 437.333c5.892 0 10.667 4.774 10.667 10.667s-4.774 10.667-10.667 10.667c-5.892 0-10.667-4.774-10.667-10.667s4.774-10.667 10.667-10.667zM672 448c0 29.457 23.876 53.333 53.333 53.333s53.333-23.876 53.333-53.333c0-29.457-23.876-53.333-53.333-53.333s-53.333 23.876-53.333 53.333zM512 426.667c11.78 0 21.333 9.553 21.333 21.333s-9.553 21.333-21.333 21.333c-11.78 0-21.333-9.553-21.333-21.333s9.553-21.333 21.333-21.333zM512 437.333c5.892 0 10.667 4.774 10.667 10.667s-4.774 10.667-10.667 10.667c-5.892 0-10.667-4.774-10.667-10.667s4.774-10.667 10.667-10.667zM458.667 448c0 29.457 23.876 53.333 53.333 53.333s53.333-23.876 53.333-53.333c0-29.457-23.876-53.333-53.333-53.333s-53.333 23.876-53.333 53.333zM298.667 426.667c11.782 0 21.333 9.553 21.333 21.333s-9.551 21.333-21.333 21.333c-11.782 0-21.333-9.553-21.333-21.333s9.551-21.333 21.333-21.333zM298.667 437.333c5.891 0 10.667 4.774 10.667 10.667s-4.776 10.667-10.667 10.667c-5.891 0-10.667-4.774-10.667-10.667s4.776-10.667 10.667-10.667zM245.333 448c0 29.457 23.878 53.333 53.333 53.333s53.333-23.876 53.333-53.333c0-29.457-23.878-53.333-53.333-53.333s-53.333 23.876-53.333 53.333zM512 842.667c-217.968 0-394.667-176.698-394.667-394.667 0-71.94 19.218-139.294 52.78-197.312 3.824-6.609 5.158-14.37 3.76-21.879l-27.21-146.146 146.146 27.213c7.508 1.395 15.27 0.064 21.88-3.763 58.018-33.562 125.37-52.779 197.31-52.779 217.967 0 394.667 176.7 394.667 394.667s-176.7 394.667-394.667 394.667zM53.333 448c0 253.315 205.352 458.667 458.667 458.667s458.667-205.352 458.667-458.667c0-253.316-205.35-458.667-458.667-458.667-79.202 0-153.798 20.1-218.873 55.501l-180.603-33.626c-10.37-1.933-21.026 1.374-28.485 8.832s-10.763 18.112-8.832 28.484l33.625 180.604c-35.398 65.075-55.499 139.669-55.499 218.871z" />
<glyph unicode="&#xe93f;" glyph-name="chat-lines" data-tags="chat-lines" d="M309.333 533.333c0 17.673 14.327 32 32 32h341.333c17.673 0 32-14.327 32-32s-14.327-32-32-32h-341.333c-17.673 0-32 14.327-32 32zM309.333 362.667c0 17.673 14.327 32 32 32h170.667c17.673 0 32-14.327 32-32s-14.327-32-32-32h-170.667c-17.673 0-32 14.327-32 32zM512 842.667c-217.968 0-394.667-176.698-394.667-394.667 0-71.94 19.218-139.294 52.78-197.312 3.824-6.609 5.158-14.37 3.76-21.879l-27.21-146.146 146.146 27.213c7.508 1.395 15.27 0.064 21.88-3.763 58.018-33.562 125.37-52.779 197.31-52.779 217.967 0 394.667 176.7 394.667 394.667s-176.7 394.667-394.667 394.667zM53.333 448c0 253.315 205.352 458.667 458.667 458.667s458.667-205.352 458.667-458.667c0-253.316-205.35-458.667-458.667-458.667-79.202 0-153.798 20.1-218.873 55.501l-180.603-33.626c-10.37-1.933-21.026 1.374-28.485 8.832s-10.763 18.112-8.832 28.484l33.625 180.604c-35.398 65.075-55.499 139.669-55.499 218.871z" />
<glyph unicode="&#xe940;" glyph-name="chat-remove" data-tags="chat-remove" d="M512 842.667c-217.968 0-394.667-176.698-394.667-394.667 0-71.94 19.218-139.294 52.78-197.312 3.824-6.609 5.158-14.37 3.76-21.879l-27.21-146.146 146.146 27.213c7.508 1.395 15.27 0.064 21.88-3.763 58.018-33.562 125.37-52.779 197.31-52.779 217.967 0 394.667 176.7 394.667 394.667s-176.7 394.667-394.667 394.667zM53.333 448c0 253.315 205.352 458.667 458.667 458.667s458.667-205.352 458.667-458.667c0-253.316-205.35-458.667-458.667-458.667-79.202 0-153.798 20.1-218.873 55.501l-180.603-33.626c-10.37-1.933-21.026 1.374-28.485 8.832s-10.763 18.112-8.832 28.484l33.625 180.604c-35.398 65.075-55.499 139.669-55.499 218.871zM352 448c0 17.673 14.327 32 32 32h256c17.673 0 32-14.327 32-32s-14.327-32-32-32h-256c-17.673 0-32 14.327-32 32z" />
<glyph unicode="&#xe941;" glyph-name="check" data-tags="check" d="M190.711 427.959c12.497 12.497 32.758 12.497 45.255 0l148.039-148.036 404.040 404.038c12.497 12.497 32.755 12.497 45.252 0s12.497-32.758 0-45.255l-426.665-426.665c-12.497-12.497-32.758-12.497-45.255 0l-170.667 170.667c-12.497 12.497-12.497 32.755 0 45.252z" />
<glyph unicode="&#xe942;" glyph-name="church-alt" data-tags="church-alt" d="M341.333 616.078l-138.667-138.668v-424.077h277.333v424.077l-138.667 138.668zM300.604 665.859c22.494 22.494 58.964 22.494 81.458 0l145.067-145.065c10.803-10.803 16.87-25.455 16.87-40.73v-433.131c0-31.812-25.788-57.6-57.6-57.6h-290.133c-31.811 0-57.6 25.788-57.6 57.6v433.131c0 15.275 6.068 29.926 16.871 40.73l145.067 145.065zM341.333 906.667c17.673 0 32-14.327 32-32v-53.333h53.333c17.673 0 32-14.327 32-32s-14.327-32-32-32h-53.333v-96c0-17.673-14.327-32-32-32s-32 14.327-32 32v96h-53.333c-17.673 0-32 14.327-32 32s14.327 32 32 32h53.333v53.333c0 17.673 14.327 32 32 32zM309.333 661.333c0 17.673 14.327 32 32 32h352.064c15.275 0 29.926-6.068 40.73-16.871l134.336-134.337c10.803-10.802 16.87-25.454 16.87-40.728v-454.464c0-31.812-25.788-57.6-57.6-57.6h-315.733c-17.673 0-32 14.327-32 32s14.327 32 32 32h309.333v445.41l-130.59 130.59h-349.41c-17.673 0-32 14.327-32 32zM688.879 631.2l-0.009 0.007c0.004-0.003 0.004-0.005 0.009-0.008zM823.206 496.87c0 0.004-0.004 0.009-0.009 0.009l0.009-0.009zM341.333 266.667c17.673 0 32-14.327 32-32v-213.333c0-17.673-14.327-32-32-32s-32 14.327-32 32v213.333c0 17.673 14.327 32 32 32zM363.167 429.171c13.136-11.823 14.201-32.055 2.379-45.193l-0.427-0.474c-11.823-13.137-32.056-14.204-45.193-2.381s-14.201 32.055-2.378 45.193l0.427 0.474c11.823 13.137 32.056 14.204 45.192 2.381z" />
<glyph unicode="&#xe943;" glyph-name="church" data-tags="church" d="M512 906.667c17.673 0 32-14.327 32-32v-53.333h53.333c17.673 0 32-14.327 32-32s-14.327-32-32-32h-53.333v-35.597l314.261-196.416c16.841-10.522 27.072-28.983 27.072-48.841v-429.547c0-31.812-25.788-57.6-57.6-57.6h-631.467c-31.811 0-57.6 25.788-57.6 57.6v429.547c0 19.857 10.231 38.319 27.072 48.841l314.261 196.416v35.597h-53.333c-17.673 0-32 14.327-32 32s14.327 32 32 32h53.333v53.333c0 17.673 14.327 32 32 32zM512 666.264l-309.333-193.334v-419.597h277.333v181.333c0 17.673 14.327 32 32 32s32-14.327 32-32v-181.333h277.333v419.597l-309.333 193.334zM704.499 258.505c13.137-11.823 14.204-32.055 2.381-45.193l-0.427-0.474c-11.823-13.137-32.055-14.204-45.193-2.381s-14.204 32.055-2.381 45.193l0.427 0.474c11.823 13.137 32.055 14.204 45.193 2.381zM704.499 429.171c13.137-11.823 14.204-32.055 2.381-45.193l-0.427-0.474c-11.823-13.137-32.055-14.204-45.193-2.381s-14.204 32.055-2.381 45.193l0.427 0.474c11.823 13.137 32.055 14.204 45.193 2.381zM533.833 429.171c13.137-11.823 14.204-32.055 2.381-45.193l-0.427-0.474c-11.823-13.137-32.055-14.204-45.193-2.381s-14.204 32.055-2.381 45.193l0.427 0.474c11.823 13.137 32.055 14.204 45.193 2.381zM363.167 429.171c13.136-11.823 14.201-32.055 2.379-45.193l-0.427-0.474c-11.823-13.137-32.056-14.204-45.193-2.381s-14.201 32.055-2.378 45.193l0.427 0.474c11.823 13.137 32.056 14.204 45.192 2.381zM363.167 258.505c13.136-11.823 14.201-32.055 2.379-45.193l-0.427-0.474c-11.823-13.137-32.056-14.204-45.193-2.381s-14.201 32.055-2.378 45.193l0.427 0.474c11.823 13.137 32.056 14.204 45.192 2.381z" />
<glyph unicode="&#xe944;" glyph-name="circle" data-tags="circle" d="M512 842.667c-217.968 0-394.667-176.698-394.667-394.667 0-217.967 176.698-394.667 394.667-394.667 217.967 0 394.667 176.7 394.667 394.667 0 217.968-176.7 394.667-394.667 394.667zM53.333 448c0 253.315 205.352 458.667 458.667 458.667s458.667-205.352 458.667-458.667c0-253.316-205.35-458.667-458.667-458.667-253.315 0-458.667 205.35-458.667 458.667z" />
<glyph unicode="&#xe945;" glyph-name="city" data-tags="city" d="M320.5 599.837c13.136-11.823 14.201-32.056 2.379-45.192l-0.427-0.474c-11.823-13.136-32.056-14.201-45.193-2.379s-14.201 32.056-2.378 45.193l0.427 0.474c11.823 13.136 32.056 14.201 45.192 2.378zM491.166 599.837c13.137-11.823 14.204-32.056 2.381-45.192l-0.427-0.474c-11.823-13.136-32.055-14.201-45.193-2.379s-14.204 32.056-2.381 45.193l0.427 0.474c11.823 13.136 32.055 14.201 45.193 2.378zM320.5 429.171c13.136-11.823 14.201-32.055 2.379-45.193l-0.427-0.474c-11.823-13.137-32.056-14.204-45.193-2.381s-14.201 32.055-2.378 45.193l0.427 0.474c11.823 13.137 32.056 14.204 45.192 2.381zM491.166 429.171c13.137-11.823 14.204-32.055 2.381-45.193l-0.427-0.474c-11.823-13.137-32.055-14.204-45.193-2.381s-14.204 32.055-2.381 45.193l0.427 0.474c11.823 13.137 32.055 14.204 45.193 2.381zM320.5 258.505c13.136-11.823 14.201-32.055 2.379-45.193l-0.427-0.474c-11.823-13.137-32.056-14.204-45.193-2.381s-14.201 32.055-2.378 45.193l0.427 0.474c11.823 13.137 32.056 14.204 45.192 2.381zM491.166 258.505c13.137-11.823 14.204-32.055 2.381-45.193l-0.427-0.474c-11.823-13.137-32.055-14.204-45.193-2.381s-14.204 32.055-2.381 45.193l0.427 0.474c11.823 13.137 32.055 14.204 45.193 2.381zM864 96v448h-192v-106.667h53.333c17.673 0 32-14.327 32-32s-14.327-32-32-32h-53.333v-106.667h53.333c17.673 0 32-14.327 32-32s-14.327-32-32-32h-53.333v-106.667h192zM608 96v704h-192v-53.333c0-17.673-14.327-32-32-32h-224v-618.667h448zM672 608h198.4c31.812 0 57.6-25.789 57.6-57.6v-460.8c0-31.812-25.788-57.6-57.6-57.6h-716.8c-31.811 0-57.6 25.788-57.6 57.6v631.467c0 31.811 25.789 57.6 57.6 57.6h198.4v27.733c0 31.811 25.789 57.6 57.6 57.6h204.8c31.812 0 57.6-25.789 57.6-57.6v-198.4z" />
<glyph unicode="&#xe946;" glyph-name="clean-water" data-tags="clean-water" d="M289.299 606.706c-122.997-122.999-122.997-322.414 0-445.414 71.357-71.356 168.403-101.333 261.459-89.869 17.54 2.159 33.51-10.308 35.674-27.849 2.159-17.54-10.308-33.51-27.849-35.674-111.774-13.769-228.656 22.255-314.539 108.139-147.991 147.989-147.991 387.93 0 535.921l227.23 227.231c22.494 22.494 58.965 22.494 81.459 0l227.234-227.232c104.047-104.048 134.895-253.513 92.723-384.436-5.419-16.823-23.45-26.069-40.269-20.651-16.823 5.419-26.065 23.45-20.646 40.269 35.098 108.971 9.353 233.148-77.065 319.563l-222.707 222.706-222.705-222.705zM660.045 129.293c12.497 12.497 32.759 12.497 45.252 0l62.707-62.703 148.041 148.036c12.497 12.497 32.759 12.497 45.252 0 12.497-12.497 12.497-32.755 0-45.252l-170.667-170.667c-12.493-12.497-32.755-12.497-45.252 0l-85.333 85.333c-12.497 12.497-12.497 32.755 0 45.252z" />
<glyph unicode="&#xe947;" glyph-name="cloud-download" data-tags="cloud-download" d="M489.374-1.293c12.497-12.497 32.755-12.497 45.252 0l149.333 149.333c12.497 12.497 12.497 32.755 0 45.252s-32.755 12.497-45.252 0l-94.707-94.703v306.743c0 17.673-14.327 32-32 32s-32-14.327-32-32v-306.743l-94.706 94.703c-12.497 12.497-32.758 12.497-45.255 0s-12.497-32.755 0-45.252l149.335-149.333zM315.44 762.203c-26.777-44.629-27.44-99.69-27.44-143.536 0-17.673-14.327-32-32-32-30.435 0-76.799-9.393-114.636-36.636-36.205-26.067-66.698-69.792-66.698-144.698 0-51.008 14.147-86.972 33.595-112.61 19.705-25.975 46.37-43.315 74.076-54.17 16.456-6.447 24.57-25.011 18.124-41.468s-25.011-24.572-41.467-18.125c-36.026 14.114-73.361 37.696-101.723 75.085-28.618 37.726-46.606 87.569-46.606 151.287 0 95.761 40.618 158.703 93.302 196.636 38.992 28.074 83.38 41.671 120.299 46.529 1.118 41.743 6.869 97.594 36.293 146.633 39.36 65.6 115.647 111.536 251.44 111.536 135.791 0 212.079-45.936 251.439-111.536 29.423-49.039 35.174-104.89 36.292-146.633 36.919-4.858 81.306-18.455 120.299-46.529 52.685-37.933 93.303-100.875 93.303-196.636 0-63.718-17.988-113.562-46.605-151.287-28.361-37.389-65.698-60.971-101.722-75.085-16.457-6.447-35.025 1.668-41.468 18.125-6.447 16.457 1.668 35.021 18.121 41.468 27.708 10.854 54.374 28.194 74.078 54.17 19.447 25.638 33.596 61.602 33.596 112.61 0 74.906-30.494 118.63-66.697 144.698-37.837 27.242-84.203 36.636-114.637 36.636-17.673 0-32 14.327-32 32 0 43.846-0.661 98.907-27.439 143.536-24.64 41.066-76.352 80.464-196.561 80.464-120.207 0-171.921-39.398-196.56-80.464z" />
<glyph unicode="&#xe948;" glyph-name="cloud-upload" data-tags="cloud-upload" d="M489.374 427.959c12.497 12.497 32.755 12.497 45.252 0l149.333-149.333c12.497-12.497 12.497-32.755 0-45.252s-32.755-12.497-45.252 0l-94.707 94.703v-306.743c0-17.673-14.327-32-32-32s-32 14.327-32 32v306.743l-94.706-94.703c-12.497-12.497-32.758-12.497-45.255 0s-12.497 32.755 0 45.252l149.335 149.333zM315.44 762.203c-26.777-44.629-27.44-99.69-27.44-143.536 0-17.673-14.327-32-32-32-30.435 0-76.799-9.393-114.636-36.636-36.205-26.067-66.698-69.792-66.698-144.698 0-51.008 14.147-86.972 33.595-112.61 19.705-25.975 46.37-43.315 74.076-54.17 16.456-6.447 24.57-25.011 18.124-41.468s-25.011-24.572-41.467-18.125c-36.026 14.114-73.361 37.696-101.723 75.085-28.618 37.726-46.606 87.569-46.606 151.287 0 95.761 40.618 158.703 93.302 196.636 38.992 28.074 83.38 41.671 120.299 46.529 1.118 41.743 6.869 97.594 36.293 146.633 39.36 65.6 115.647 111.536 251.44 111.536 135.791 0 212.079-45.936 251.439-111.536 29.423-49.039 35.174-104.89 36.292-146.633 36.919-4.858 81.306-18.455 120.299-46.529 52.685-37.933 93.303-100.875 93.303-196.636 0-63.718-17.988-113.562-46.605-151.287-28.361-37.389-65.698-60.971-101.722-75.085-16.457-6.447-35.025 1.668-41.468 18.125-6.447 16.457 1.668 35.021 18.121 41.468 27.708 10.854 54.374 28.194 74.078 54.17 19.447 25.638 33.596 61.602 33.596 112.61 0 74.906-30.494 118.63-66.697 144.698-37.837 27.242-84.203 36.636-114.637 36.636-17.673 0-32 14.327-32 32 0 43.846-0.661 98.907-27.439 143.536-24.64 41.066-76.352 80.464-196.561 80.464-120.207 0-171.921-39.398-196.56-80.464z" />
<glyph unicode="&#xe949;" glyph-name="cloud" data-tags="cloud" d="M315.44 676.87c-26.777-44.629-27.44-99.69-27.44-143.536 0-17.673-14.327-32-32-32-30.435 0-76.799-9.395-114.636-36.638-36.205-26.065-66.698-69.79-66.698-144.695s30.493-118.63 66.698-144.695c37.836-27.243 84.201-36.638 114.636-36.638h512c30.434 0 76.8 9.395 114.637 36.638 36.203 26.065 66.697 69.79 66.697 144.695s-30.494 118.63-66.697 144.695c-37.837 27.243-84.203 36.638-114.637 36.638-17.673 0-32 14.327-32 32 0 43.846-0.661 98.907-27.439 143.536-24.64 41.066-76.352 80.464-196.561 80.464-120.207 0-171.921-39.398-196.56-80.464zM260.56 709.797c39.36 65.6 115.647 111.536 251.44 111.536 135.791 0 212.079-45.936 251.439-111.536 29.423-49.039 35.174-104.89 36.292-146.633 36.919-4.858 81.306-18.455 120.299-46.527 52.685-37.935 93.303-100.877 93.303-196.638s-40.619-158.703-93.303-196.638c-51.051-36.757-111.351-48.695-152.030-48.695h-512c-40.676 0-100.978 11.938-152.031 48.695-52.684 37.935-93.302 100.877-93.302 196.638s40.618 158.703 93.302 196.638c38.992 28.072 83.38 41.669 120.299 46.527 1.118 41.743 6.869 97.594 36.293 146.633z" />
<glyph unicode="&#xe94a;" glyph-name="code-brackets" data-tags="code-brackets" d="M174.238 474.62c0 0 0 0-0.001-0.004-0.006-0.004-0.013-0.009-0.020-0.013-0.002 0-0.004 0-0.006-0.004-0.002 0-0.004 0-0.006-0.004-8.876-5.935-14.205-15.91-14.205-26.594 0-10.688 5.335-20.668 14.22-26.607 0.006-0.004 0.012-0.009 0.019-0.013l0.012-0.004 0.315-0.218c0.328-0.226 0.866-0.602 1.585-1.114 1.441-1.028 3.588-2.603 6.203-4.638 5.283-4.109 12.212-9.894 19.019-16.7 6.908-6.908 12.992-14.178 17.188-21.171 4.299-7.164 5.44-12.070 5.44-14.869v-213.38c0-64.828 52.556-117.286 117.333-117.286h42.667c17.673 0 32 14.327 32 32s-14.327 32-32 32h-42.667c-29.479 0-53.333 23.855-53.333 53.286v213.38c0 18.534-6.859 34.961-14.56 47.795-7.804 13.009-17.72 24.405-26.813 33.498-1.385 1.387-2.766 2.735-4.137 4.041 1.371 1.306 2.753 2.654 4.137 4.041 9.092 9.092 19.008 20.489 26.813 33.498 7.701 12.834 14.56 29.261 14.56 47.795v213.37c0 29.437 23.86 53.297 53.333 53.297h42.667c17.673 0 32 14.327 32 32s-14.327 32-32 32h-42.667c-64.783 0-117.333-52.477-117.333-117.297v-213.37c0-2.799-1.141-7.706-5.44-14.869-4.196-6.993-10.28-14.263-17.187-21.171-6.806-6.805-13.736-12.591-19.019-16.7-2.615-2.035-4.762-3.61-6.203-4.638-0.719-0.512-1.258-0.887-1.585-1.114l-0.315-0.218-0.012-0.004zM849.762 474.62c0 0 0 0 0-0.004 0.009-0.004 0.013-0.009 0.021-0.013 0 0 0.004 0 0.004-0.004 0.004 0 0.004 0 0.009-0.004 8.875-5.935 14.204-15.91 14.204-26.594 0-10.688-5.333-20.668-14.221-26.607-0.004-0.004-0.013-0.009-0.017-0.013l-0.013-0.004-0.316-0.218c-0.329-0.226-0.866-0.602-1.583-1.114-1.442-1.028-3.588-2.603-6.204-4.638-5.282-4.109-12.215-9.894-19.021-16.7-6.908-6.908-12.992-14.178-17.186-21.171-4.301-7.164-5.44-12.070-5.44-14.869v-213.38c0-64.828-52.557-117.286-117.333-117.286h-42.667c-17.673 0-32 14.327-32 32s14.327 32 32 32h42.667c29.478 0 53.333 23.855 53.333 53.286v213.38c0 18.534 6.861 34.961 14.562 47.795 7.804 13.009 17.719 24.405 26.812 33.498 1.382 1.387 2.765 2.735 4.134 4.041-1.37 1.306-2.752 2.654-4.134 4.041-9.092 9.092-19.008 20.489-26.816 33.498-7.701 12.834-14.558 29.261-14.558 47.795v213.37c0 29.437-23.859 53.297-53.333 53.297h-42.667c-17.673 0-32 14.327-32 32s14.327 32 32 32h42.667c64.785 0 117.333-52.477 117.333-117.297v-213.37c0-2.799 1.139-7.706 5.44-14.869 4.194-6.993 10.278-14.263 17.186-21.171 6.805-6.805 13.734-12.591 19.021-16.7 2.615-2.035 4.762-3.61 6.204-4.638 0.717-0.512 1.254-0.887 1.583-1.114l0.316-0.218 0.013-0.004z" />
<glyph unicode="&#xe94b;" glyph-name="code" data-tags="code" d="M584.636 734.807c17.020-4.765 26.953-22.424 22.187-39.443l-149.333-533.333c-4.766-17.020-22.426-26.953-39.442-22.187-17.018 4.766-26.952 22.426-22.187 39.441l149.335 533.335c4.766 17.018 22.421 26.952 39.441 22.187zM105.373 425.374c-12.497 12.497-12.497 32.755 0 45.252l149.333 149.335c12.497 12.497 32.758 12.497 45.255 0s12.497-32.758 0-45.255l-126.706-126.706 126.706-126.707c12.497-12.497 12.497-32.755 0-45.252s-32.758-12.497-45.255 0l-149.333 149.333zM918.626 425.374c12.497 12.497 12.497 32.755 0 45.252l-149.333 149.335c-12.497 12.497-32.755 12.497-45.252 0s-12.497-32.758 0-45.255l126.703-126.706-126.703-126.707c-12.497-12.497-12.497-32.755 0-45.252s32.755-12.497 45.252 0l149.333 149.333z" />
<glyph unicode="&#xe94c;" glyph-name="codepen" data-tags="codepen" d="M896 608c17.673 0 32-14.327 32-32v-256c0-17.673-14.327-32-32-32s-32 14.327-32 32v256c0 17.673 14.327 32 32 32zM128 608c17.673 0 32-14.327 32-32v-256c0-17.673-14.327-32-32-32s-32 14.327-32 32v256c0 17.673 14.327 32 32 32zM512 352c17.673 0 32-14.327 32-32v-256c0-17.673-14.327-32-32-32s-32 14.327-32 32v256c0 17.673 14.327 32 32 32zM512 864c17.673 0 32-14.327 32-32v-256c0-17.673-14.327-32-32-32s-32 14.327-32 32v256c0 17.673 14.327 32 32 32zM494.251 858.626c10.748 7.166 24.751 7.166 35.499 0l384-256c8.905-5.935 14.251-15.927 14.251-26.626s-5.346-20.691-14.251-26.626l-384-255.998c-10.748-7.168-24.751-7.168-35.499 0l-384.001 255.998c-8.902 5.935-14.249 15.927-14.249 26.626s5.347 20.691 14.249 26.626l384.001 256zM185.689 576l326.311-217.54 326.31 217.54-326.31 217.541-326.311-217.541zM494.251 602.626c10.748 7.166 24.751 7.166 35.499 0l384-256.002c8.905-5.935 14.251-15.923 14.251-26.624s-5.346-20.689-14.251-26.624l-384-256c-10.748-7.168-24.751-7.168-35.499 0l-384.001 256c-8.902 5.935-14.249 15.923-14.249 26.624s5.347 20.689 14.249 26.624l384.001 256.002zM185.689 320l326.311-217.54 326.31 217.54-326.31 217.541-326.311-217.541z" />
<glyph unicode="&#xe94d;" glyph-name="collage-frame" data-tags="collage-frame" d="M138.667 763.733c0 31.811 25.789 57.6 57.6 57.6h631.467c31.812 0 57.6-25.789 57.6-57.6v-631.467c0-31.812-25.788-57.6-57.6-57.6h-631.467c-31.811 0-57.6 25.788-57.6 57.6v631.467zM202.667 757.333v-618.667h618.667v618.667h-618.667zM501.333 789.333v-341.333h-64v341.333h64zM853.333 416h-682.667v64h682.667v-64z" />
<glyph unicode="&#xe94e;" glyph-name="collapse" data-tags="collapse" d="M842.667 320c0 17.673-14.327 32-32 32h-170.667c-17.673 0-32-14.327-32-32v-170.667c0-17.673 14.327-32 32-32s32 14.327 32 32v93.41l158.707-158.703c12.497-12.497 32.755-12.497 45.252 0s12.497 32.755 0 45.252l-158.703 158.707h93.41c17.673 0 32 14.327 32 32zM181.333 320c0 17.673 14.327 32 32 32h170.667c17.673 0 32-14.327 32-32v-170.667c0-17.673-14.327-32-32-32s-32 14.327-32 32v93.41l-158.706-158.703c-12.497-12.497-32.758-12.497-45.255 0s-12.497 32.755 0 45.252l158.706 158.707h-93.412c-17.673 0-32 14.327-32 32zM842.667 576c0-17.673-14.327-32-32-32h-170.667c-17.673 0-32 14.327-32 32v170.667c0 17.673 14.327 32 32 32s32-14.327 32-32v-93.412l158.707 158.706c12.497 12.497 32.755 12.497 45.252 0s12.497-32.758 0-45.255l-158.703-158.706h93.41c17.673 0 32-14.327 32-32zM181.333 576c0-17.673 14.327-32 32-32h170.667c17.673 0 32 14.327 32 32v170.667c0 17.673-14.327 32-32 32s-32-14.327-32-32v-93.412l-158.706 158.706c-12.497 12.497-32.758 12.497-45.255 0s-12.497-32.758 0-45.255l158.706-158.706h-93.412c-17.673 0-32-14.327-32-32z" />
<glyph unicode="&#xe94f;" glyph-name="color-filter" data-tags="color-filter" d="M512 821.333c-123.712 0-224-100.288-224-224s100.288-224 224-224c123.712 0 224 100.288 224 224s-100.288 224-224 224zM224 597.333c0 159.058 128.942 288 288 288s288-128.942 288-288c0-159.057-128.943-288-288-288s-288 128.943-288 288zM682.667 522.667c-123.712 0-224-100.288-224-224s100.288-224 224-224c123.712 0 224 100.288 224 224s-100.288 224-224 224zM394.667 298.667c0 159.057 128.943 288 288 288s288-128.943 288-288c0-159.057-128.943-288-288-288s-288 128.943-288 288zM341.333 522.667c-123.712 0-224-100.288-224-224s100.288-224 224-224c123.712 0 224 100.288 224 224s-100.288 224-224 224zM53.333 298.667c0 159.057 128.942 288 288 288s288-128.943 288-288c0-159.057-128.943-288-288-288s-288 128.943-288 288z" />
</font>
</defs>
</svg>
